<svg version="1.2" xmlns="http://www.w3.org/2000/svg" viewBox="0 0 500 500" width="2000" height="2000"><style>.a{fill:#f0eadd}.b{fill:#f0ddb6}.c{fill:#ffca64}.d{fill:#ffb254}.e{fill:#ffd687}.f{fill:#363636}.g{fill:#fff}.h{fill:#ffab9c}.i{fill:#f77e68}.j{fill:#ffc7bd}.k{fill:#132762}.l{fill:#241c19}.m{fill:#3e68bd}.n{fill:#6186d6}.o{fill:#ff500d}.p{fill:#ff6930}.q{fill:#ad3102}.r{fill:#17b6c4}.s{fill:#026870}.t{fill:#02909c}</style><path class="a" d="m116.4 419c0.2 0.3 1.9 1.8 1.5 1.6 1 0.6 2 1.2 3 1.7 1.2 0.5 3.4 1.3 6 2 5.2 1.5 10.6 2.5 15.8 4.1 9.8 2.8 19.6 6.5 29.6 8.6 0.5-4 0.8-8.1 0.9-12.1 0.3-6 0.2-12-0.5-18-0.2-1.7-0.6-2.5-1.1-5.3-0.2-1.1-0.5-1.8-1.1-2.8-0.2-0.5-1.8-1.5-3.9-2.6-1.7-0.9-3.4-1.5-5.3-2.2-5.5-1.8-11.2-3-16.8-4.4-6-1.4-11.9-2.8-17.9-4.3-3-0.8-6.1-1.3-9.1-1.9q1 1.1 1.7 2.3 0.1 0 0.1 0c-0.2 0.5-0.5 0.9-0.7 1.4q-0.3 0.4-0.3 0.8 0 0.2 0 0.3c0.1 1.2 1.3 2 1.5 3.2q0.1 0.2 0 0.5 0 0.3-0.2 0.6c-0.3 0.6-0.8 1.2-0.9 1.9q0 0.2 0 0.4c0.1 0.5 0.4 1 0.6 1.4 0.2 0.3 0.3 0.6 0.4 1 0 0.4 0 0.8-0.2 1.3-0.1 0.3-0.4 0.7-0.6 1-0.4 0.8-1 1.7-1.1 2.6 0 0.9 0.4 1.9 0.4 2.8q0 0.9-0.4 1.7-0.3 0.5-0.7 1c-0.1 0.2-0.2 0.3-0.4 0.5-0.7 0.9-1.5 1.8-1.8 2.9q-0.1 0.1-0.1 0.2-0.1 0.5-0.1 1c0 0.8 0.3 1.6 0.7 2.2 0.1 0.1 0.2 0.2 0.3 0.3-0.4 0.3-0.9 0.6-1.5 0.8-0.1 0.1-0.2 0.1-0.4 0.2q-0.8 0.2-1.2 0.6c1.4 0.7 2.7 1.5 3.8 2.7z"/><path class="b" d="m172.3 405.1c-10.2-4.8-21.2-8-31.9-11.1-7.2-2.1-14.7-4.3-21.8-6.9q-0.3 0.4-0.3 0.8 0 0.2 0 0.3c7.2 2.6 14.6 4.8 21.8 6.9 10.9 3.2 22.1 6.5 32.5 11.4-0.1-0.5-0.2-1-0.3-1.4z"/><path class="b" d="m119.6 392.5c17.6 6.2 35.5 12.2 53.4 17.8q-0.1-0.7-0.1-1.3c-17.8-5.6-35.6-11.5-53.1-17.6q0.1 0.2 0 0.5 0 0.3-0.2 0.6z"/><path class="b" d="m173.1 412.1l-54.4-17.3c0.1 0.5 0.4 1 0.6 1.4l53.9 17.1q0-0.6-0.1-1.2z"/><path class="b" d="m173.3 417.9c-18.1-5.8-36.2-12.3-53.8-19.4-0.1 0.3-0.4 0.7-0.6 1 17.8 7.2 36.1 13.8 54.4 19.6q0-0.6 0-1.2z"/><path class="b" d="m173.2 424.9q0.1-0.5 0.1-1l-55.5-17.3q-0.3 0.5-0.7 1l56.1 17.5q0-0.1 0-0.2z"/><path class="b" d="m173 429.5c-19.5-5.5-39-11.7-58.1-18.5q-0.1 0.1-0.1 0.2-0.1 0.5-0.1 1c19.1 6.8 38.7 13 58.2 18.5q0-0.6 0.1-1.2z"/><path class="c" d="m180.4 433.4l-1.9 6.9c-3 0.1-6 0-8.8-0.5-9-1.7-18.3-6.3-26.9-9.4q-14.3-5.1-28.6-10.2c-0.9-0.3-2.2-0.3-2.2-1.9 0-1.3 0.3-2.2 1.8-2.6 0.2-0.1 0.3-0.1 0.4-0.2l56.7 20v-34.4l-51.7-15.4c-0.7-1.3-1.7-2.5-2.9-3.5-4.3-3.6 3.2-4.3 6-4.5 14.5 3.2 41.7 9.2 42.5 9.4 1.2 0.2 8.6 10.2 8.6 10.2z"/><path class="d" d="m401.7 418.1c-0.8 6.5-2.3 9.6-9 10-22 1.2-43.9 2.5-65.9 3.7-11.4 0.6-22.9 1.2-34.3 1.9-22.8 1.2-45.6 2.5-68.4 3.8-9.3 0.5-18.6 1-28 1.5-6.9 0.4-14.5 1.7-21.7 1.3v-36.8c0-1.7-0.6-3.3-1.7-4.5-0.8-1-1.9-1.7-3.2-2.1l-54.5-16.5c-0.4-2.2 6-2.6 7.8-2.7 25.3-1 50.6-3.8 75.8-6.2q18.8-1.7 37.5-3.5c16.3-1.5 32.5-3 48.8-4.6 17-1.6 34.7-5.6 51.3-0.7 13.3 3.9 26.5 7.8 39.2 13.3 5.6 2.4 11.4 4.9 16.2 8.5q2.3 1.8 4.2 3.9c2.5 2.8 4.4 6 5.4 10.1 1.6 6.4 1.3 13.1 0.5 19.6z"/><path class="e" d="m401.7 418.1c-0.8 6.5-2.3 9.6-9 10-22 1.2-43.9 2.5-65.9 3.7-11.4 0.6-22.9 1.2-34.3 1.9-22.8 1.2-45.6 2.5-68.4 3.8-9.3 0.5-18.6 1-28 1.5-6.9 0.4-14.5 1.7-21.7 1.3v-36.8c0-1.7-0.6-3.3-1.7-4.5 24.4-1 178.3-8.4 223.1-10.6 2.5 2.8 4.4 6 5.4 10.1 1.6 6.4 1.3 13.1 0.5 19.6z"/><path class="f" d="m204.6 433.3l-0.1-2.1 151.4-8 0.1 2.2z"/><path class="f" d="m360.8 410.6q-1.4 0-2.7-0.2c-0.7 0-1.2-0.4-1.5-1-0.3-0.6-0.3-1.2 0-1.8 2.4-4.1 5.7-7.7 9.5-10.5 0.7-0.5 1.5-1.1 2.5-1.3 1.3-0.3 2.5 0.1 3.3 0.9 0.7 0.8 0.9 1.9 0.6 3.1q0.1 0 0.2-0.1c1.3 0 2.8 0.6 3.3 2 0.3 0.9 0.3 2.3-1.6 4-3.4 3.2-8.2 4.9-13.6 4.9zm-2.5-2.1c6 0.6 11.2-0.9 14.8-4.3 0.4-0.3 1.3-1.2 1.1-1.9-0.2-0.4-0.7-0.7-1.3-0.6-0.7 0-1.5 0.5-2.2 0.9l-0.2 0.1c-0.4 0.2-0.9 0.1-1.2-0.3-0.3-0.3-0.3-0.9 0-1.2 0.5-0.6 1-1.2 1.2-1.8 0.2-0.5 0.2-1.1-0.1-1.4-0.3-0.4-0.9-0.4-1.3-0.3-0.7 0.1-1.3 0.6-1.9 1-3.5 2.6-6.6 6-8.9 9.8z"/><path class="f" d="m370.1 422.1q-0.4 0-0.8-0.1c-4.6-0.6-8.9-3.4-12-8-0.3-0.5-0.4-1.1-0.2-1.6 0.2-0.5 0.7-0.8 1.2-0.9 4-0.7 8.1-0.5 12 0.4 0.7 0.2 1.6 0.4 2.3 0.9 0.8 0.7 1.3 1.7 1.1 2.6-0.1 0.9-0.7 1.7-1.6 2.1q0 0.1 0.1 0.2c0.8 0.7 1.2 2.1 0.5 3.1-0.3 0.6-1 1.3-2.6 1.3zm-11.4-9c2.8 4.2 6.7 6.7 10.8 7.3 0.5 0 1.5 0.1 1.8-0.4 0.2-0.3 0.1-0.8-0.3-1.2-0.4-0.4-1.1-0.7-1.7-0.9l-0.2-0.1c-0.3-0.1-0.6-0.5-0.5-0.9 0.1-0.4 0.4-0.7 0.8-0.7q0.2 0 0.3 0c0.6 0 1.1 0 1.6-0.2 0.3-0.1 0.7-0.4 0.8-0.8 0.1-0.3-0.2-0.8-0.5-1-0.5-0.4-1.1-0.6-1.7-0.7-3.6-0.9-7.5-1-11.2-0.4z"/><path class="f" d="m190.6 420.8c-3.6 0-7-0.9-9.8-2.7-2.2-1.3-2.5-2.7-2.3-3.6 0.2-1.4 1.5-2.3 2.8-2.5q0.1 0 0.3 0c-0.5-1.1-0.6-2.2 0-3.1 0.5-1 1.7-1.6 3-1.6 1 0.1 2 0.5 2.7 0.9 4.3 2 8.2 4.9 11.3 8.5 0.4 0.4 0.6 1.1 0.4 1.7-0.2 0.6-0.7 1.1-1.3 1.3-2.4 0.7-4.8 1.1-7.1 1.1zm-8.8-6.9q-0.1 0-0.3 0c-0.5 0.1-1.1 0.5-1.1 0.9-0.1 0.7 0.9 1.4 1.4 1.7 4.2 2.6 9.6 3.1 15.3 1.4-2.9-3.3-6.6-6.1-10.6-8-0.6-0.3-1.3-0.6-2-0.6-0.5 0-1.1 0.2-1.3 0.5-0.2 0.4-0.1 1 0.2 1.4 0.3 0.6 0.9 1.1 1.5 1.6 0.4 0.3 0.5 0.8 0.3 1.2-0.2 0.4-0.7 0.6-1.2 0.5l-0.2-0.1c-0.6-0.2-1.4-0.5-2-0.5zm15.6 4.9h0.1z"/><path class="f" d="m187.2 433.5c-1 0-1.6-0.4-1.9-0.8-0.9-0.9-0.7-2.3-0.1-3.2q0.1-0.1 0.1-0.2c-1-0.2-1.7-0.9-2-1.7-0.3-0.9-0.1-2 0.7-2.8 0.5-0.6 1.3-1 2-1.3 3.6-1.7 7.7-2.6 11.7-2.7 0.6 0 1 0.2 1.3 0.7 0.3 0.5 0.4 1 0.2 1.6-2.2 5.1-5.9 8.7-10.3 10.1q-1 0.3-1.7 0.3zm0.6-6c0.4 0 0.7 0.2 0.8 0.6 0.1 0.3 0 0.8-0.3 1l-0.2 0.1c-0.6 0.3-1.2 0.7-1.5 1.2-0.3 0.4-0.4 0.9-0.1 1.2 0.4 0.5 1.4 0.2 1.9 0 3.9-1.3 7.2-4.5 9.3-9.2-3.8 0.1-7.6 1-11 2.6-0.6 0.2-1.1 0.5-1.5 0.9-0.3 0.3-0.5 0.8-0.4 1.2 0.2 0.3 0.6 0.6 1 0.6 0.6 0.1 1.2 0 1.9-0.1q0-0.1 0.1-0.1z"/><path class="f" d="m385.4 428.5q-0.9 0.1-1.9 0.1c3.8-12.7 3.9-26.5 0.2-39.3-0.1-0.5 0.2-1 0.7-1.1 0.5-0.2 1 0.1 1.1 0.6 3.7 12.9 3.7 26.8-0.1 39.7z"/><path class="f" d="m390.1 389.5c3.2 6.6 4.8 14.7 4.4 23.5-0.3 5.3-1.2 10.4-2.3 15.1q0.2 0 0.5 0 0.8 0 1.4-0.1c1.1-4.7 2-9.7 2.2-14.9 0.4-8.9-1.1-17.1-4.3-23.9q-0.9 0.2-1.9 0.3z"/><path class="g" d="m395.1 387.6l-222 10.6c-1.1-1-2.4-1.8-3.9-2.3l-53.6-16.7c-0.7 0.5-0.9 1.2-0.1 2.2l53 16.6c2.5 0.8 4.5 2.7 5.1 5q0.2 0.9 0.2 1.9c0 5.3-0.5 26.2-0.6 35.3q1 0.1 2.1 0.1c0.2-9.1 0.6-30 0.7-35.4q0-1.2-0.3-2.4-0.3-1.2-0.9-2.2l222.1-10.6q-0.9-1.1-1.8-2.1z"/><path class="a" d="m374.3 364.9q0.1-0.1 0.1-0.3 0.2-0.7 0.4-1.4c0.2-0.9 0.3-1.8 0.1-2.7q0-0.1 0-0.2-0.2-0.6-0.4-1.2c-0.1-0.4-0.2-0.8-0.3-1.3 0-0.3 0-0.7 0.1-1.1q0.1-0.1 0.1-0.2c0.3-0.7 1-1.4 1-2.2 0.1-0.7-0.3-1.4-0.8-2-0.2-0.3-0.5-0.6-0.7-1q-0.1-0.1-0.2-0.3-0.1-0.2-0.1-0.5-0.1-0.3 0-0.7c0.1-1.3 1.2-2.5 0.9-3.7q0-0.1 0-0.2-0.1-0.2-0.2-0.5-0.1-0.2-0.3-0.4-0.2-0.3-0.4-0.5c0-0.1-0.1-0.1-0.1-0.2 0.1-0.1 0.1-0.2 0.1-0.3q0.1 0 0.1 0c0.5-0.9 2-1.5 2.3-2.4-10.6 2.1-21.3 6.6-31.2 10.6-4.4 1.8-9.5 3.7-12.6 5.2-2.2 1-4.4 2.1-6.4 3.4-1.3 0.9-2.5 1.8-3.2 2.6-0.7 0.8-1.2 1.8-1.7 2.9v28.4c4.6-2.5 9.1-5.2 13.7-7.6 6.7-3.4 13.4-6.6 20.2-9.9q9.8-4.8 19.4-10.1 0.7-0.4 1.4-0.8-0.3-0.2-0.7-0.6-0.3-0.3-0.6-0.8z"/><path class="b" d="m374 345q-0.2-0.3-0.4-0.5c-17.8 6.6-35.4 14-52.7 21.8q0 0 0 0v1.3c14.8-6.7 29.9-13.1 45.1-19q4.2-1.6 8.3-3.2-0.1-0.2-0.3-0.4z"/><path class="b" d="m320.9 370.1l53.6-24q0-0.1 0-0.2-0.1-0.2-0.2-0.5-0.1-0.2-0.3-0.4l-8 3.6-45.1 20.2z"/><path class="b" d="m320.9 372.3v1.3c17.4-7.8 35.1-15.3 52.8-22.6q-0.1-0.2-0.1-0.5-0.1-0.3 0-0.7c-17.7 7.2-35.3 14.8-52.7 22.5z"/><path class="b" d="m320.9 376l53.7-23.7c-0.2-0.3-0.5-0.6-0.7-1l-53 23.5z"/><path class="b" d="m374.4 356.5c-17.7 7.6-35.7 14.9-53.5 22.1v1.2c17.8-7.1 35.6-14.4 53.3-22 0-0.3 0-0.7 0.1-1.1q0.1-0.1 0.1-0.2z"/><path class="b" d="m320.9 383c17.8-7.8 35.9-15.4 54-22.7q-0.2-0.6-0.4-1.2c-17.9 7.3-35.9 14.9-53.6 22.6z"/><path class="b" d="m320.9 384.3v1.3c17.9-6.7 35.8-13.7 53.5-21q0.2-0.7 0.4-1.4c-17.8 7.3-35.9 14.4-53.9 21.1z"/><path class="h" d="m371.2 374.6c-10.3 4.9-20.4 10.2-30.8 14.8-8 3.6-16.2 10-25.2 10.5 0.2-10.7 0.4-44.4 0.4-44.4l55.2-18.5c1.5 0.7 3 1.5 4.3 2.5 0.4 0.4 0.8 0.7 0.9 1.2q0.1 0.4 0.1 0.7c-0.2 1-1.9 1.7-2.4 2.6l-51.2 19.9v26.7l52.4-24.9q0.5 0.6 1.2 0.9c0.4 0.1 0.9 0.2 1.2 0.6 1.8 2.3-4.7 6.6-6.1 7.4z"/><path class="i" d="m374.1 338.9l-49.9 18.3c-2.9 1-4.9 3.4-5.6 6.3q-0.2 1-0.2 2v33.9c-1.2 0.3-2.4 0.4-3.7 0.5-5.6 0.1-11.2-1.9-16.7-2.5-6.2-0.8-12.3-2-18.5-2.9q-18.8-3-37.5-6-30-4.7-59.9-9.4c-17.5-2.8-35-5.5-52.4-8.3-6.5-1-9.3-4.4-9.3-11.1-0.1-3.6-0.1-7.2 0-10.9q0.1-5.6 3.7-8.3 2-1.5 5-2.1c30.7-6.1 61.4-12 92.2-18q15.6-3 31.3-6.2c3.2-0.6 6.3-0.9 9.6-0.2 29.9 6.4 60 12.9 90 18.9 7.1 1.4 15.8 1.6 21.9 6z"/><path class="j" d="m374.2 338.9l-50 18.3c-2.9 1-4.9 3.4-5.6 6.3l-194.5-23q2-1.5 5-2.1c30.7-6.1 61.4-12 92.2-18q15.6-3 31.3-6.2c3.2-0.6 6.3-0.9 9.6-0.2 29.9 6.4 60 12.9 90 18.9 7.1 1.4 15.8 1.7 22 6z"/><path class="k" d="m131.5 342.5c-3.5 8.7-5.1 18.2-4.8 27.6q-1.1-0.4-1.9-0.9c-0.2-9.3 1.5-18.8 5-27.4 0.2-0.4 0.8-0.7 1.2-0.5 0.5 0.2 0.7 0.8 0.5 1.2z"/><path class="k" d="m141.2 343.7c-2.9 9-4.5 18.6-4.7 28.2q-1-0.1-1.9-0.3c0.3-9.7 1.9-19.4 4.9-28.5 0.1-0.5 0.6-0.8 1.1-0.6 0.5 0.2 0.8 0.7 0.6 1.2z"/><path class="k" d="m135 348c0 0.9-0.7 1.6-1.6 1.6-0.9 0-1.6-0.7-1.6-1.6 0-0.9 0.7-1.6 1.6-1.6 0.9 0 1.6 0.7 1.6 1.6z"/><path class="k" d="m132.3 365.1c0 0.9-0.7 1.6-1.6 1.6-0.9 0-1.6-0.7-1.6-1.6 0-0.9 0.7-1.6 1.6-1.6 0.9 0 1.6 0.7 1.6 1.6z"/><path class="k" d="m133.4 355.1c0 0.9-0.7 1.6-1.6 1.6-0.9 0-1.6-0.7-1.6-1.6 0-0.8 0.7-1.6 1.6-1.6 0.9 0 1.6 0.8 1.6 1.6z"/><path class="k" d="m302.5 362.6c-4.5 10.9-5.9 23.2-4.3 34.8q-0.1 0-0.2-0.1-0.8-0.1-1.7-0.2c-1.6-11.8 0-24.2 4.5-35.2 0.2-0.4 0.7-0.7 1.2-0.5 0.4 0.2 0.7 0.8 0.5 1.2z"/><path class="k" d="m312.2 363.8c-3.7 11.3-5.3 23.4-4.8 35.3q-0.9-0.1-1.8-0.3c-0.5-12 1.1-24.2 4.8-35.6 0.2-0.5 0.7-0.8 1.2-0.6 0.4 0.2 0.7 0.7 0.6 1.2z"/><path class="k" d="m305.9 368.1c0 0.9-0.7 1.6-1.6 1.6-0.9 0-1.6-0.7-1.6-1.6 0-0.9 0.7-1.6 1.6-1.6 0.9 0 1.6 0.7 1.6 1.6z"/><path class="k" d="m303.2 385.2c0 0.9-0.7 1.6-1.6 1.6-0.9 0-1.6-0.7-1.6-1.6 0-0.9 0.7-1.6 1.6-1.6 0.9 0 1.6 0.7 1.6 1.6z"/><path class="k" d="m304.3 375.2c0 0.9-0.7 1.6-1.6 1.6-0.9 0-1.6-0.7-1.6-1.6 0-0.8 0.7-1.6 1.6-1.6 0.9 0 1.6 0.8 1.6 1.6z"/><path class="k" d="m274.2 387.3h-1v-14.9h1z"/><path class="k" d="m281.2 380.1h-13.9v-1.1h13.9z"/><path class="k" d="m267.9 385.8l-0.8-0.8 12.9-12.8 0.7 0.7z"/><path class="k" d="m278.5 386.1c-1.3-1.9-2.9-3.6-4.4-5.3-1.8-1.8-3.6-3.7-4.9-5.9l1-0.5c1.2 2.1 3 3.9 4.6 5.7 1.6 1.7 3.3 3.4 4.6 5.4z"/><path class="k" d="m172.7 370.9h-1.1v-14.8h1.1z"/><path class="k" d="m179.6 363.7h-13.8v-1.1h13.8z"/><path class="k" d="m166.3 369.4l-0.7-0.8 12.8-12.8 0.8 0.8z"/><path class="k" d="m176.9 369.8c-1.2-2-2.8-3.7-4.4-5.3-1.7-1.8-3.5-3.7-4.8-5.9l0.9-0.6c1.3 2.1 3 4 4.7 5.7 1.6 1.7 3.3 3.5 4.5 5.5z"/><path class="g" d="m372.2 337.7l-50 19.3h-0.2c-0.1 0.1-3.1 2-4.2 5l-192.4-22.4q-1.4 0.8-2.5 1.9l194.5 22.7c-0.1 3.2 0 25.9 0 35.4q1.1-0.2 2.2-0.4c-0.1-9.8-0.1-32.1 0-35 0-2.9 3-4.9 3.5-5.3l51.4-19.8q-1.1-0.8-2.3-1.4z"/><path class="a" d="m120.8 337.3q1.7 0 3.4 0.3c9.8 1.5 19.6 2.7 29.5 4 9.4 1.2 18.9 3.2 28.3 3.7 6.7 0.3 13.5-0.2 20.2-1.3v-53.6h-77.4q0 0 0 0 0.3 0.2 0.5 0.5c0.5 0.5 0.7 1.2 0.9 1.8-0.5 0.5-0.9 0.9-1.3 1.4q-0.4 0.4-0.6 0.8-0.1 0.2-0.2 0.3-0.1 0.3-0.2 0.7 0 0.1 0 0.2c-0.2 1.6 1.1 3 1.2 4.6 0 0.6-0.2 1.2-0.4 1.7q-0.1 0.4-0.3 0.9-0.1 0.1-0.2 0.3-0.2 0.4-0.3 0.8c-0.3 0.6-0.4 1.3-0.4 1.9 0 1.4 0.8 2.5 1.3 3.8q0.2 0.4 0.3 0.8 0.1 0.2 0.1 0.4 0.1 0.2 0.1 0.3 0 0.1 0 0.3 0 0.1 0 0.2 0 0.3 0 0.5 0 0.2-0.1 0.4 0 0.4-0.1 0.8c-0.4 1.2-0.9 2.4-0.9 3.6q-0.1 0.5 0 0.9 0 0.1 0 0.2 0 0.1 0 0.1 0.1 0.4 0.3 0.8c0.5 1.2 1.4 2.3 1.6 3.5 0.1 0.7 0.1 1.3-0.1 2q0 0.3-0.1 0.7-0.1 0.2-0.2 0.4-0.1 0.4-0.3 0.8c-0.2 0.6-0.3 1.2-0.4 1.8q-0.1 0.4-0.1 0.8 0 0.2 0 0.4 0 0.3 0.1 0.7c0.2 1.1 0.7 2.2 1.5 3v0.1c-0.1 0-0.1 0.1-0.2 0.2-1.2 1.2-6.4-0.2-6.4 1.7 0 0.5 0.3 0.9 0.5 1.3q0.2 0.3 0.4 0.5z"/><path class="b" d="m202.2 298.5l-77.3-4.4q-0.4 0.4-0.6 0.8-0.1 0.2-0.2 0.3l78.1 4.5z"/><path class="b" d="m202.2 306.9l-77.5-4.5q-0.1 0.4-0.3 0.9-0.1 0.1-0.2 0.3l78 4.5z"/><path class="b" d="m202.2 321.9l-78-4.5q-0.1 0.5 0 0.9 0 0.1 0 0.2 0 0.1 0 0.1l78 4.5z"/><path class="b" d="m202.2 314.6l-77.4-4.5q0.2 0.4 0.3 0.8 0.1 0.2 0.1 0.4l77 4.4z"/><path class="b" d="m202.2 316.3l-76.9-4.4q0 0.1 0 0.2 0 0.3 0 0.5 0 0.2-0.1 0.4l77 4.5z"/><path class="b" d="m202.2 329.3l-76.2-4.4q0 0.3-0.1 0.7-0.1 0.2-0.2 0.4l76.5 4.4z"/><path class="b" d="m202.2 333l-77.2-4.4q-0.1 0.4-0.1 0.8 0 0.2 0 0.4l77.3 4.4z"/><path class="l" d="m205.5 349.8c-7.2 0-14.4-0.1-21.7-0.3q-6.5-0.1-13-0.8c-8-0.7-16-2-24-3.4q-8.2-1.4-16.3-3.1c-4-0.9-7.5-1.9-10.1-5.4-0.2-0.4-0.5-0.8-0.5-1.3 0-1.9 5.2-0.5 6.4-1.7q0.1-0.1 0.2-0.2l72.1 9v-51.7h-73.3q-0.2-0.3-0.5-0.5c-2-1.6-4.5-1-1.7-3.9 1.7-1.7 4-2.5 6.4-2.7 2.7-0.1 5.4 0 8.1 0q33 0 66.1 0.4z"/><path class="f" d="m367.4 323.6c-0.5 5.4-1.6 10.7-2.9 15.9-1.5 5.6-4.4 8-10.1 8.1-21 0-42 0.4-63 0.7-30.2 0.3-60.5 1.6-90.8 1.5v-65.7q22.2 0.2 44.5 0.5 54.4 0.7 108.9 1.4c7.3 0.1 9.7 1.9 11.7 9.1 2.6 9.4 2.6 19 1.7 28.5z"/><path class="g" d="m207.8 284.2v65.6h-1.1v-65.6q0.6 0 1.1 0z"/><path class="g" d="m336.6 347.6v-61.8q-0.5 0-1.1 0v61.8z"/><path class="g" d="m342.4 285.9v61.7q-0.5 0-1 0v-61.8q0.5 0.1 1 0.1z"/><path class="a" d="m375.5 278.4c0.2-0.6 0.3-1.2 0.1-1.8-0.5-1.2-1.6-2-1.8-3.2q-0.1-0.4-0.1-0.8c0.1-0.4 0.2-0.8 0.4-1.1 0.3-0.9 0.8-1.8 0.9-2.7 0.1-0.5 0-1-0.1-1.5q-0.2-0.5-0.4-1.1c-0.4-0.9-0.7-1.9-0.7-2.8 0.1-2.1 1.9-3.8 1.7-5.8q0.1-0.1 0-0.1 0-0.6-0.3-1.2c-0.4-1.1-1.1-2.1-1.1-3.2 0-1.1 0.6-2 1.1-3q0.3-0.5 0.5-1.1 0-0.1 0-0.2 0.1-0.3 0.1-0.5 0-0.6-0.1-1.2c-0.1-1-0.5-2-0.9-2.9q-0.3-0.6-0.5-1.2-0.2-0.7-0.3-1.5 0-0.1 0-0.3 0-0.1 0.1-0.2 0.3-0.2 0.6-0.4-0.2-0.1-0.2-0.1c-1.3-0.7-1.9-1.2-2.5-1.9h-84v43.5h85.8q0.6-0.4 1.1-0.9c1.1-1.2 1.4-1.8 0.8-2.6q-0.1-0.1-0.2-0.2z"/><path class="b" d="m288 244.2h86.8q-0.3-0.6-0.5-1.2h-86.3z"/><path class="b" d="m288 248.3h87.8q0-0.6-0.1-1.2h-87.7z"/><path class="b" d="m288 249v1.1h87.2q0.3-0.5 0.5-1.1z"/><path class="b" d="m288 257.5h87.5q0-0.6-0.3-1.2h-87.2z"/><path class="b" d="m288 267.3h86.9q-0.2-0.5-0.4-1.1h-86.5z"/><path class="b" d="m288 271.5v1.1h85.7c0.1-0.4 0.2-0.8 0.4-1.1z"/><path class="m" d="m272.1 285.5c17.2 0 34.5 0.1 51.7 0.4 15.4 0.3 30.7-1.4 46-2.4q3-0.2 5.1-2.3c1.1-1.2 1.4-1.8 0.8-2.6l-86.6 1.5v-39.1h85c0.4-0.4 1-0.7 1.7-0.9 1.1-0.3 1-1 0.8-1.9-0.9-2.8-3.4-4.8-6.7-5.1-4.3-0.3-8.6-0.4-12.9-0.7-17.3-1-34.5-0.7-51.8-0.7-9 0-18 0-27.1 0-1.2 11.2-4.6 42-6 53.8z"/><path class="n" d="m101.1 280.2c1.4 4.2 3.5 5.6 8.2 5.6 18.7 0.1 37.5 0.1 56.2 0.1h13.9c35.3 0 70.6-0.5 105.8-0.4v-53.8c-10.1 0-20.2 0-30.4 0-47.9-0.1-95.9 0-143.9 0-0.9 0-1.9-0.1-2.8 0-3.2 0.4-5.7 2-6.7 5.1-4.5 14.4-5.3 28.9-0.3 43.4z"/><path class="k" d="m272.6 276.3h-12c-0.8 0-1.4-0.5-1.7-1.2-0.3-0.7-0.1-1.5 0.4-2.1q1-0.9 2.1-1.9 1.3-1.4 2.7-2.7c0.2-0.2 0.3-0.4 0.2-0.7 0-0.3-0.3-0.5-0.5-0.6-5.4-1.5-10.4-3.2-15-5.2-0.5-0.2-0.8-0.7-0.8-1.2-0.1-0.6 0.2-1.1 0.7-1.3 3.6-1.9 7.6-4.6 12.2-8.2 0.2-0.1 0.3-0.4 0.3-0.6 0-0.3-0.1-0.5-0.3-0.7q-1.6-1-3-2.1l-1-0.7c-0.7-0.5-1-1.4-0.7-2.2 0.2-0.7 0.9-1.3 1.8-1.3h14.6c1 0 1.8 0.9 1.8 1.9v28.9c0 1-0.8 1.9-1.8 1.9zm-14.6-31.6c-0.5 0-0.7 0.3-0.8 0.6-0.1 0.2 0 0.6 0.3 0.9l1 0.7q1.5 1.1 3 2.1c0.5 0.4 0.8 0.9 0.8 1.5 0 0.6-0.3 1.2-0.7 1.6-4.7 3.6-8.8 6.3-12.4 8.2-0.1 0.1-0.2 0.3-0.2 0.3 0 0.1 0.1 0.3 0.2 0.3 4.5 2 9.5 3.7 14.8 5.1 0.7 0.2 1.2 0.7 1.4 1.4 0.2 0.7 0 1.4-0.5 1.8q-1.4 1.3-2.8 2.6-1 1-2 2c-0.4 0.4-0.3 0.8-0.2 0.9 0 0.1 0.2 0.5 0.7 0.5h12c0.4 0 0.8-0.4 0.8-0.8v-28.9c0-0.4-0.4-0.8-0.8-0.8z"/><path class="g" d="m284.2 285.5q1 0 2.1 0v-53.8q-1.1 0-2.1 0z"/><path class="k" d="m145.8 230.7c0.8 0.1 1.6 0.1 2.4 0.1q101.6 0 203.1 0c2.5 0 5.2 0 7.4-1.2 4.6-2.5 3-9.9 3.1-14.2q0-10-0.1-20c-0.1-6.6-6.9-6.5-11.9-6.5q-100 0-200 0c-5 0-10.7 0.6-10.7 6.9-0.1 7 0.3 14 0.1 21-0.1 4.5-1.4 10.7 3.7 13.2 0.9 0.5 1.9 0.7 2.9 0.7z"/><path class="c" d="m353.5 210.7l-5.7-1.8-2.1-0.6 1.5-2.7-2.7 1.5-0.6-2.1-1.8-5.7-1.7 5.7-0.6 2.1-2.7-1.5 1.4 2.7-2.1 0.6-5.6 1.8 5.6 1.7 2.1 0.6-1.4 2.7 2.7-1.4 0.6 2 1.7 5.7 1.8-5.7 0.6-2 2.7 1.4-1.5-2.7 2.1-0.6z"/><path class="c" d="m345.2 204.2q0 0-0.1 0c-0.1 0-0.2-0.2-0.2-0.3l1.1-3.4c0.1-0.1 0.2-0.2 0.4-0.1 0.1 0 0.2 0.2 0.2 0.3l-1.1 3.3c-0.1 0.1-0.2 0.2-0.3 0.2z"/><path class="c" d="m348.5 206.9q-0.2 0-0.3-0.1c0-0.2 0-0.3 0.2-0.4q1.2-0.6 2.6-0.9c0.2 0 0.3 0.1 0.3 0.2 0.1 0.2 0 0.3-0.2 0.4q-1.3 0.3-2.5 0.8-0.1 0-0.1 0z"/><path class="c" d="m350 215.3q-0.1 0-0.2-0.1l-2.2-1.3c-0.2-0.1-0.2-0.3-0.1-0.4 0-0.1 0.2-0.2 0.3-0.1l2.3 1.4c0.1 0.1 0.2 0.2 0.1 0.4q-0.1 0.1-0.2 0.1z"/><path class="c" d="m346 219.2c-0.1 0-0.2-0.1-0.3-0.2q-0.3-1.3-0.5-2.5c0-0.2 0.1-0.3 0.3-0.3 0.1 0 0.2 0.1 0.3 0.2q0.1 1.2 0.4 2.4c0.1 0.2 0 0.3-0.2 0.4q0 0 0 0z"/><path class="c" d="m337.7 218.8q-0.1 0-0.1 0c-0.2-0.1-0.2-0.2-0.1-0.4l1.4-2.4c0.1-0.1 0.3-0.1 0.4-0.1 0.1 0.1 0.2 0.3 0.1 0.4l-1.5 2.4q-0.1 0.1-0.2 0.1z"/><path class="c" d="m333.6 216.1q-0.1 0-0.2 0c-0.1-0.1-0.1-0.3 0-0.4q1.1-1.2 2.5-2.3c0.1-0.1 0.3 0 0.3 0.1 0.1 0.1 0.1 0.3 0 0.4q-1.3 1-2.4 2.2-0.1 0-0.2 0z"/><path class="c" d="m336.5 207.3q-0.1 0-0.2-0.1l-2.3-1.6c-0.1 0-0.1-0.2 0-0.3 0.1-0.2 0.2-0.2 0.4-0.1l2.2 1.6c0.1 0.1 0.2 0.3 0.1 0.4q-0.1 0.1-0.2 0.1z"/><path class="c" d="m338.7 204.2c-0.1 0-0.2-0.1-0.3-0.2q-0.4-1.6-1-3.1c0-0.1 0.1-0.3 0.2-0.4 0.1 0 0.3 0.1 0.4 0.2q0.5 1.6 1 3.2c0 0.1-0.1 0.3-0.2 0.3q-0.1 0-0.1 0z"/><path class="c" d="m169.6 220.6q0.8 0 1.5-0.1c-2.4 1.7-5.2 2.7-8.3 2.7-7.9 0-14.2-6.4-14.2-14.2 0-7.9 6.3-14.2 14.2-14.2 3.1 0 5.9 1 8.3 2.6q-0.7 0-1.5 0c-6.4 0-11.6 5.2-11.6 11.6 0 6.4 5.2 11.6 11.6 11.6z"/><path class="a" d="m388.8 176.5c-0.7-0.2-1.4-0.5-1.9-0.9q-0.7-0.4-1.2-1 0-0.1-0.1-0.2c0.4-0.7 0.2-1.7-0.1-2.4q0-0.1-0.1-0.2-0.2-0.6-0.4-1.1-0.2-0.4-0.2-0.9-0.1-0.3 0-0.7c0-0.1 0.1-0.3 0.1-0.4 0.1-0.5 0.4-0.9 0.5-1.3q0.1-0.4 0-0.8 0-0.2-0.1-0.3c-0.2-0.4-0.5-0.9-0.8-1.2 0.1-0.4 0.2-0.8 0.4-1.1q0 0 0.1-0.1c0.4-0.6 2.5-2 3.3-3-12.3 1.6-24.1 4.9-36.2 7.5-13.7 3-27.7 4-41.3 7q-0.5 0.1-1 0.2v20.2q0.6 0 1.1-0.1c4.9-0.6 9.7-2 14.6-3q8.9-1.7 17.8-3.6c13.3-2.7 26.7-5.5 40-8.4 1.8-0.4 3.4-0.6 5-1.7 0.9-0.7 2.6-2.1 0.5-2.5z"/><path class="b" d="m385.4 166.6q0-0.2-0.1-0.3l-75.5 12.5v1.2l75.6-12.6q0.1-0.4 0-0.8z"/><path class="b" d="m384.8 169.1c0-0.1 0.1-0.3 0.1-0.4-25.4 2.6-50.6 7.4-75.1 14.4v1.2c24.5-7 49.7-11.8 75-14.5q-0.1-0.3 0-0.7z"/><path class="b" d="m385 170.7c-25.2 4.7-50.4 10.3-75.2 16.8v0.3l0.3 0.9c24.8-6.5 50.1-12.2 75.3-16.9q-0.2-0.6-0.4-1.1z"/><path class="o" d="m388.3 179c-1.6 1.1-3.2 1.3-5 1.7-13.3 2.9-26.7 5.7-40 8.4q-8.9 1.9-17.8 3.6c-4.9 1-9.7 2.4-14.6 3-1.7 0.2-3.5 0.3-5.4 0.2-0.2-8.8-0.4-26.4-0.4-26.4 0 0 61.8-9.1 79.7-11.5 1.2 0.3 2.5 1 3.6 1.7 1.3 0.9-2.8 3.3-3.4 4.2l-74.6 11.9 0.8 16.9 75.7-17.1c0.5 0.4 1.2 0.7 1.9 0.9 2.1 0.4 0.4 1.8-0.5 2.5z"/><path class="p" d="m388.6 160.1l-77 11.6c-1.8 0.2-3.3 1.4-3.9 3q-0.5 1-0.4 2.2l0.9 19c-4.1 0.1-8.3-0.5-12.2-0.7q-36.4-1.7-72.8-3.3c-24.2-1.1-48.3-2.4-72.4-3.3-1.4-0.1-3.1 0-4.8-0.2-1.5-0.1-2.9-0.4-4-1-1.8-1-3-3.4-3.4-5.3-0.9-3.8-0.6-7.5 0.7-11.2 0.7-2.1 2.1-3.5 3.9-4.3q1.1-0.6 2.3-0.9c14.5-4.2 29-8.4 43.5-12.6 11.4-3.3 22.8-6.5 34.2-9.8 1.8-0.6 3.6-0.7 5.5-0.5 21.9 2.1 43.8 4.1 65.6 6.3q32.6 3.1 65.2 6.3c8 0.8 15.9 1.5 23.8 2.3 1.8 0.1 3.5 1 5.1 2 0.1 0.1 0.2 0.3 0.2 0.4z"/><path class="q" d="m388.6 160.1l-77 11.6c-1.8 0.2-3.3 1.4-3.9 2.9-23-1.1-128.9-6.3-164.5-8.1q1.1-0.5 2.3-0.8c14.5-4.2 29-8.4 43.5-12.6 11.4-3.3 22.8-6.5 34.2-9.9 1.8-0.5 3.6-0.6 5.5-0.4 21.9 2.1 43.8 4.1 65.6 6.2q32.6 3.2 65.2 6.4c8 0.8 15.9 1.5 23.8 2.3 1.8 0.1 3.5 1 5.1 2 0.1 0.1 0.2 0.2 0.2 0.4z"/><path class="g" d="m301.1 191.7h-1.1l0.3-12.9h1.1z"/><path class="g" d="m300.7 185.8l-8.9-0.3v-1.1l8.9 0.3z"/><path class="g" d="m293.1 189.1l-0.4-0.9 7.2-3.5 0.5 1z"/><path class="g" d="m297.1 190.7l-0.9-0.7 4.1-5.2 0.9 0.6z"/><path class="g" d="m299.9 185.3l-7.1-3.8 0.6-1 7 3.9z"/><path class="g" d="m300.3 185.3l-3.8-5.5 0.9-0.6 3.8 5.5z"/><path class="g" d="m185.5 186.6l-42.1-3 1.9-12.5 41.1 3zm-40.8-4l39.8 2.9 0.7-10.4-39-2.8z"/><path class="g" d="m388.4 159.7c-0.3-0.2-0.6-0.4-0.9-0.5l-76.1 11.4c-0.2 0-3.8 0.6-4.7 3.4l-159.9-8.7q-0.7 0.2-1.4 0.4c-1.3 0.3-2.5 0.9-3.3 1.5l164.3 8.9c0 3.8 0.6 14.1 1 19.8q1.1 0 2.1 0c-0.4-7.9-1-18.9-0.9-20.7 0.2-2 3.1-2.5 3.1-2.5l76.2-11.4c0.7-0.6 1-1.2 0.5-1.6z"/><path class="a" d="m388.3 152.2q-0.7-0.2-1.1-0.7-0.4-0.4-0.6-0.8 0-0.1 0.1-0.3 0.2-0.6 0.3-1.3c0.2-0.8 0.3-1.7 0.1-2.6q0-0.1-0.1-0.2-0.1-0.5-0.3-1-0.2-0.6-0.3-1.2c0-0.4 0-0.7 0.1-1q0-0.2 0.1-0.3c0.2-0.7 0.9-1.3 0.9-2.1 0-0.7-0.4-1.2-0.8-1.8-0.3-0.3-0.5-0.6-0.7-0.9q-0.1-0.2-0.1-0.3-0.1-0.2-0.2-0.5 0-0.3 0-0.6c0.1-1.2 1.1-2.4 0.8-3.6q0.1 0 0-0.1 0-0.2-0.2-0.5-0.1-0.2-0.2-0.3-0.2-0.3-0.5-0.6 0 0 0-0.1c0-0.1 0-0.2 0.1-0.3q0 0 0 0c0.5-0.9 2.1-1.5 2.3-2.5q0-0.3-0.1-0.6c-0.2-0.4-0.5-0.7-0.9-1q-9.4 4.4-18.8 8.7c-10.5 4.8-21.8 8.7-32.3 13.8v34c6.8-1.9 13-6.5 19.2-9.4 9.7-4.4 19.1-9.5 28.6-14.3 1.4-0.7 7.4-4.8 5.7-7-0.3-0.3-0.7-0.4-1.1-0.6z"/><path class="b" d="m386.1 132.1q-0.2-0.3-0.5-0.6c-16.7 6.6-33.4 13.8-49.7 21.5v1.2c14-6.6 28.3-12.8 42.7-18.7q3.8-1.5 7.7-3.1-0.1-0.2-0.2-0.3z"/><path class="b" d="m335.9 156.5l50.6-23.5q0.1 0 0-0.1 0-0.2-0.2-0.5-0.1-0.2-0.2-0.3l-7.5 3.4-42.7 19.8z"/><path class="b" d="m335.9 158.6v1.2c16.4-7.6 33.2-15 50-22.1q-0.1-0.2-0.2-0.5 0-0.3 0-0.6c-16.7 7.1-33.4 14.5-49.8 22z"/><path class="b" d="m335.9 162.2l50.8-23.3c-0.3-0.3-0.5-0.6-0.7-0.9l-50.1 23z"/><path class="b" d="m386.6 142.8c-16.8 7.4-33.8 14.7-50.7 21.7v1.2c16.8-7 33.7-14.2 50.5-21.6 0-0.4 0-0.7 0.1-1q0-0.2 0.1-0.3z"/><path class="b" d="m335.9 168.7c16.9-7.6 34-15.1 51.1-22.4q-0.1-0.5-0.3-1c-17 7.2-34 14.6-50.8 22.2z"/><path class="b" d="m335.9 169.9v1.2c17-6.6 34-13.5 50.8-20.7q0.2-0.6 0.3-1.3c-16.9 7.2-34 14.2-51.1 20.8z"/><path class="r" d="m383.7 159.8c-9.5 4.8-18.9 9.9-28.6 14.3-7.5 3.5-15.1 9.6-23.6 10.1 0.1-9.9-0.2-41.6-0.2-41.6l51.6-18c1.5 0.6 2.8 1.3 4 2.3 0.4 0.3 0.8 0.7 1 1.1q0.1 0.3 0.1 0.6c-0.2 1-1.8 1.6-2.3 2.5l-47.7 19.3 0.3 25.1 48.9-24q0.4 0.5 1.1 0.7c0.4 0.2 0.8 0.3 1.1 0.6 1.7 2.2-4.3 6.3-5.7 7z"/><path class="s" d="m386.1 126.3l-46.6 17.8c-2.7 1-4.6 3.3-5.2 6q-0.2 0.9-0.2 1.9l0.5 31.8c-1.2 0.2-2.3 0.4-3.5 0.5-5.2 0.2-10.5-1.6-15.7-2.2-5.8-0.6-11.6-1.6-17.4-2.5q-17.6-2.5-35.2-5-28.2-4.1-56.4-8.1c-16.4-2.4-32.8-4.7-49.2-7.1-6.1-0.9-8.7-4.1-8.9-10.3-0.1-3.4-0.1-6.8-0.1-10.2q0-5.3 3.4-7.9 1.8-1.4 4.7-2c28.7-6.1 57.4-12.1 86.2-18.1q14.6-3 29.3-6.2c3-0.6 5.9-0.9 9-0.3 28.1 5.6 56.4 11.3 84.6 16.5 6.7 1.3 14.8 1.4 20.7 5.4z"/><path class="t" d="m386.1 126.3l-46.6 17.8c-2.7 1-4.6 3.3-5.2 6l-182.7-19.1q1.8-1.4 4.7-2c28.7-6.1 57.4-12.1 86.2-18.1q14.6-3 29.3-6.2c3-0.6 5.9-0.9 9-0.3 28.1 5.6 56.4 11.3 84.6 16.5 6.7 1.3 14.8 1.4 20.7 5.4z"/><path class="e" d="m157.5 131.4l-0.8 27.9q-2.4-0.4-4.1-1.3l0.8-26.7z"/><path class="e" d="m330.2 150.3l-2.8 33.8c-1.4-0.1-2.7-0.4-4.1-0.6l2.8-33.5z"/><path class="g" d="m386.9 126.9q-0.9-0.7-1.9-1.3l-46.4 17.8c-0.2 0-4.3 1.6-5.2 5.6l-180.3-19q-1.4 0.8-2.5 1.8l182.7 19.2c-0.1 5.3 0.2 24.6 0.3 33q1.1-0.2 2.1-0.4c-0.2-9.3-0.5-30.3-0.4-33.5 0.2-3.4 3.9-4.8 4-4.8l47.7-18.3q0-0.1-0.1-0.1z"/><path class="a" d="m168.9 101.4q0-0.1 0-0.1c0-2.3-1.3-4.3-3.4-5.1-6.2-2.4-12.2-4.9-18.3-7-12-4.1-24.2-6.5-36.5-9.4 0.1 0.4 0.4 1 1.2 1.6 1.3 1.1 2.2 2.3 3 3.6q0 0 0 0c-0.1 0.4-0.4 0.9-0.7 1.3q-0.2 0.4-0.2 0.9 0 0.1 0 0.3c0.1 1.1 1.2 2 1.4 3.1q0.1 0.3 0.1 0.5-0.1 0.4-0.2 0.7c-0.3 0.6-0.8 1.2-0.9 1.9q0 0.2 0 0.4c0.1 0.5 0.4 0.9 0.6 1.4 0.1 0.3 0.3 0.6 0.3 0.9 0.1 0.5 0 0.9-0.2 1.4-0.1 0.3-0.3 0.7-0.5 1-0.5 0.8-1 1.6-1.1 2.6-0.1 0.9 0.4 1.8 0.4 2.8q0 0.8-0.5 1.6-0.2 0.5-0.6 1c-0.1 0.2-0.3 0.4-0.4 0.6-0.7 0.9-1.6 1.8-1.9 2.9q0 0.1 0 0.1-0.2 0.6-0.2 1.1c0 0.8 0.3 1.6 0.8 2.2 0.1 0.1 0.2 0.2 0.2 0.3-0.4 0.3-0.9 0.6-1.4 0.8-0.2 0.1-0.3 0.1-0.4 0.1-1.5 0.5-1.8 1.3-1.8 2.7 0 1.5 1.2 1.5 2.2 1.9q14.3 5.1 28.5 10.1c8.7 3.1 17.9 7.8 27 9.4q1.7 0.3 3.5 0.4z"/><path class="b" d="m168.9 104.8c-10.5-5-21.8-8.4-32.8-11.6-7.3-2.1-14.7-4.2-21.9-6.9q-0.2 0.4-0.2 0.9 0 0.1 0 0.3c7.1 2.6 14.5 4.7 21.7 6.9 11.2 3.2 22.6 6.6 33.2 11.7z"/><path class="b" d="m115.3 91.8c17.7 6.2 35.7 12.2 53.6 17.8v-1.2c-17.9-5.6-35.8-11.5-53.5-17.8q0.1 0.3 0.1 0.5-0.1 0.4-0.2 0.7z"/><path class="b" d="m168.9 111.4l-54.5-17.3c0.1 0.5 0.4 0.9 0.6 1.4l53.9 17.1z"/><path class="b" d="m168.9 117.1c-18.1-5.8-36.2-12.2-53.8-19.3-0.1 0.3-0.3 0.7-0.5 1 17.7 7.2 36 13.7 54.3 19.5z"/><path class="b" d="m168.9 123.1l-55.5-17.3q-0.2 0.5-0.6 1l56.1 17.6z"/><path class="b" d="m168.9 128.9c-19.6-5.6-39.2-11.8-58.4-18.6q0 0.1 0 0.1-0.2 0.6-0.2 1.1c19.3 6.8 39 13 58.6 18.6z"/><path class="d" d="m176 132.7l-1.8 6.9c-3 0.1-6-0.1-8.8-0.6-9.1-1.6-18.3-6.3-27-9.4q-14.2-5-28.5-10.1c-1-0.4-2.2-0.4-2.2-1.9 0-1.4 0.3-2.2 1.8-2.7 0.1 0 0.2 0 0.4-0.1l56.6 19.9v-34.3l-51.6-15.4c-0.8-1.3-1.7-2.5-3-3.6-4.2-3.5 3.3-4.2 6-4.4 14.5 3.2 41.7 9.1 42.6 9.3 1.2 0.3 8.6 10.2 8.6 10.2z"/><path class="c" d="m397.4 117.4c-0.8 6.4-2.4 9.6-9.1 9.9-21.9 1.3-43.9 2.6-65.8 3.8-11.5 0.6-22.9 1.2-34.4 1.8-22.8 1.3-45.5 2.6-68.3 3.8-9.3 0.6-18.7 1.1-28 1.6-6.9 0.4-14.6 1.7-21.7 1.3v-36.8c0-1.7-0.6-3.3-1.7-4.5-0.8-1-2-1.8-3.2-2.2l-54.5-16.4c-0.4-2.2 5.9-2.7 7.7-2.7 25.3-1.1 50.6-3.8 75.9-6.2q18.7-1.7 37.5-3.5c16.2-1.5 32.5-3.1 48.7-4.6 17-1.6 34.8-5.6 51.4-0.7 13.2 3.9 26.5 7.8 39.2 13.3 5.6 2.4 11.4 4.9 16.1 8.5q2.3 1.7 4.3 3.9c2.5 2.7 4.4 6 5.4 10.1 1.6 6.4 1.2 13.1 0.5 19.6z"/><path class="e" d="m397.4 117.4c-0.8 6.4-2.4 9.6-9.1 9.9-21.9 1.3-43.9 2.6-65.8 3.8-11.5 0.6-22.9 1.2-34.4 1.8-22.8 1.3-45.5 2.6-68.3 3.8-9.3 0.6-18.7 1.1-28 1.6-6.9 0.4-14.6 1.7-21.7 1.3v-36.8c0-1.7-0.6-3.3-1.7-4.5 24.3-1.1 178.3-8.5 223.1-10.6 2.5 2.7 4.4 6 5.4 10.1 1.6 6.4 1.2 13.1 0.5 19.6z"/><path class="t" d="m375.4 89.2v38.9q-2.1 0.1-4.3 0.2v-39.1z"/><path class="t" d="m382.9 89.2v38.5q-2.2 0.1-4.3 0.2v-38.7z"/><path class="t" d="m390.4 89.2v37.9q-1 0.2-2.1 0.3-1.1 0-2.3 0.1v-38.3z"/><path class="g" d="m390.8 86.9l-222.4 9.8q-1-0.7-2.2-1.1l-54.7-17.3c-0.9 0.6-1.2 1.3-0.5 2.2l54.6 17.2c1.1 0.3 1.9 0.9 2.5 1.7q0.8 1.1 0.8 2.5c0.1 2.6 0.1 26 0.1 37.6q1 0 2.1 0.1c0-11.5 0.1-35.1 0-37.7q0-1.7-0.8-3.1l222.3-9.7c-0.5-0.8-1.2-1.5-1.8-2.2z"/><path class="f" d="m205.8 413.2q0-0.4 0.4-0.6 0.3 0.2 0.4 0.5 0 0 0.2 0.5 0.1 0.4 0.1 0.6 0.2 0.5 0.4 1.5 0.2 1.3 0.4 2 0 0.1 0.2 1 0.1 0.5 0.1 0.9 0.3 1.3 0.4 2.7 0 0.3 0 0.3 0.2 0.1 0.2 0.1 0.7 0 1.2 0.2 0.7 0.3 1.1 0.5 0.2 0.2 0.3 0.5-0.5 0.3-1 0.4-0.5 0.2-1.5 0.3-0.1 0.1-0.2 0.2 0.1 0.7 0.1 0.9 0.1 0.4 0.1 1 0 0.1-0.1 0.4 0 0.1-0.2 0.1-0.2 0.1-0.2 0.2-0.1 0.1-0.2 0.1 0 0-0.1 0 0 0-0.1 0-0.1 0-0.3 0.1-0.1 0.1-0.2 0.1 0 0-0.1 0 0 0-0.1 0.1 0 0 0 0-0.2-0.1-0.2 0 0-0.1-0.1-0.1-0.3-0.3-0.5-0.2 0 0 0 0-0.3-0.1-0.3-0.1-0.1-0.1-0.2-0.2 0-0.1 0-0.2-0.1-0.2-0.1-0.6 0-0.2 0-0.9v-0.2q0 0-0.3 0-0.3 0-0.8 0.1-0.3 0-0.5-0.2 0-0.1-0.2-0.1 0-0.1 0-0.1-0.1-0.1-0.1-0.1-0.2 0-0.2-0.2v-0.4q0 0 0-0.1 0-0.1 0-0.1 0-0.2-0.2-0.3 0 0 0.1-0.1 0.1 0 0.1 0 0-0.2 0-0.2 0.1-0.1 0.1-0.1 0 0 0.3-0.4 0.1-0.1 0.2-0.1 0.1-0.1 0.1-0.1 0.1-0.1 0.1-0.1 0.1 0 0.1 0 1-0.2 1.1-0.2 0.1 0.1 0.2 0 0-0.1 0-0.5 0-0.2 0-0.4 0-1.4-0.1-1.6 0-0.4 0-1.1-0.1-0.7-0.1-1.1 0-0.5 0-1.5v-0.8q0-1.3 0.2-2.3zm9.6 7q-0.1-0.1-0.2-0.1 0 0-0.1-0.1 0 0-0.1-0.1-0.2-0.1-0.2-0.1 0-0.2-0.2-0.4-0.1-0.1-0.5-0.5-0.2-0.3-0.4-0.4-0.1-0.2-0.3-0.4-0.2-0.2-0.3-0.3 0-0.1-0.1-0.2-0.1 0.1-0.2 0.2-0.1 0.1-0.1 0.1v-0.1q0 0-0.1 0 0 0-0.1 0.2-0.1 0.1-0.3 0.2 0.1-0.3 0.1-0.3 0.1-0.1 0.1-0.1 0-0.3 0-0.4 0 0 0-0.1 0-0.1 0-0.1 0.1-0.3 0-0.5-0.1-0.1 0-0.2 0.1 0 0.2 0 0.2 0 0.3-0.2 0.4-0.6 0.8-1.2 0.6-1 1.4-1.9 0.6-0.8 1.5-1.6 0.1-0.1 0.5-0.4 0.1-0.1 0.3-0.2 0.2 0 0.3-0.2 0.2-0.1 0.4-0.3 0.1-0.1 0.1-0.1 0 0.1 0 0.2-0.1 0.1-0.1 0.2 0.2 0.3 0.2 0.5 0 0.2-0.1 0.4-0.2 0.2-0.5 0.6-0.3 0.3-0.5 0.5-0.1 0.1-0.4 0.5-0.3 0.3-0.4 0.5-0.2 0.3-0.6 0.8-0.6 0.7-0.5 0.6 0 0-0.9 1.1l-0.4 0.5q0-0.1-0.1 0.2 0 0 0 0 0.1 0.1 0.1 0.1 1.1 0.7 1.6 1.1 0 0 0.1 0.1 0.9 0.5 2.1 1.7 0.1 0 0.4 0.3 0.1 0.2 0.2 0.3 0 0 0.1 0.1 0.2 0.3 0.2 0.4 0.1 0.1 0 0.2 0 0.1 0.1 0.3 0 0.1 0 0.2l-0.1-0.1-0.1 0.1q0.2 0.2 0.3 0.4 0-0.1-0.1-0.1 0 0-0.2-0.1 0-0.1-0.1-0.1-0.1 0.1-0.2 0.3-0.2 0.3-1.1 1.4l-0.2 0.3q-0.2 0.2-0.6 0.6-0.4 0.4-0.6 0.6 0 0 0 0.1 0 0 0.1 0 0.1 0 0.1 0 1.1-0.2 2.2-0.2 0.3 0 0.6 0.1 0.3 0 0.3 0.1 0 0.1 0.2 0.1 0.2 0.1 0.2 0.1 0 0.1-0.1 0.1 0 0-0.1 0.1h-0.2q0.2 0.1 0.4 0.1 0 0 0.3 0.1 0 0.1 0 0.2 0 0 0 0 0.1 0.1 0.1 0.2 0 0.1 0 0.1-0.2 0.1-0.3 0.2-0.1 0-0.1 0-0.1 0-0.1 0-0.1 0.1 0 0.2 0 0 0.1 0 0 0 0.1 0.1-0.2 0-0.5 0.1-0.2 0-0.5 0.1-0.3 0.1-0.5 0.1-0.1 0-0.3 0-0.2 0-0.7 0-0.4 0.1-0.6 0.1-1.5 0-1.5 0-0.4 0-0.6 0-0.3-0.1-0.6-0.2-0.1 0-0.3 0-0.3 0-0.5 0.2 0 0 0 0 0 0.1-0.1 0.1 0-0.1 0-0.1 0.2-0.2 0.1-0.5-0.1 0-0.2-0.1 0 0 0 0 0-0.2 0.1-0.5 0.1-0.2 0.2-0.2 0.1 0 0.2-0.1 1.6-2.1 1.7-2.1 0.3-0.4 0.5-0.7 0.3-0.6 1.2-1.4 0.2-0.1 0.2-0.2 0-0.1 0-0.1-0.1 0-0.3-0.2-0.2-0.2-0.3-0.2-0.1 0-0.1-0.1 0-0.1-0.2-0.1-0.2-0.1-0.3-0.2 0-0.1 0-0.1 0 0-0.1 0-0.1 0-0.1-0.1-0.1-0.1-0.1-0.1zm10.5 1.3l0.1 0.3q1 0.3 1.7 1 0.7 0.7 1 1.3 0.1 0 0.3 0.5 0.1 0.1 0.1 0.4 0 0.2-0.1 0.8 0 0.1-0.2 0.2-0.1 0.1-0.2 0.1-0.1 0-0.2 0.1 0 0-0.1 0 0 0-0.1 0.1-0.1 0-0.2 0-0.1 0-0.2 0l-0.2 0.1q-0.4 0-0.6-0.5-0.2-1.1-0.3-1.4-0.2-0.4-0.3-0.5-0.1-0.2-0.2-0.3 0 0.1 0 0.3-0.1 0.4-0.1 0.8-0.1 0.8-0.4 1.4-0.1 0.1-0.4 0.2-0.4 0.2-0.5 0.2-0.2 0-0.3-0.2-0.1-0.2-0.2-0.2-0.1-0.3-0.1-0.4-0.2-0.5-0.2-1 0-0.3 0-0.9 0 0 0-0.2-0.2 0.1-0.2 0.1-0.3 0.2-0.5 0.3-0.2 0.2-0.3 0.4-0.2 0.3-0.3 0.7 0 0.2-0.1 0.6-0.1 0.4-0.1 0.6-0.1 0.1-0.2 0.3 0 0.1-0.3 0.3-0.1 0-0.3 0 0-0.2 0-0.2 0-0.2 0-1 0.1-0.4 0.2-1.1 0.2-0.8 0.6-1.5 0.1-0.2 0.6-0.6 0-0.1 0-0.1 0.1 0 0.1-0.1 0.2-0.2 0.6-0.4h0.1q0-0.2 0-0.3-0.1-0.7-0.2-2.2 0-1.5 0-2.2l-0.1-1.1q0 0 0-0.3-0.1-0.1-0.4-0.1-0.3-0.1-0.6-0.4-0.6-0.5-1-1.2-0.5-0.7-0.9-1.6 0 0-0.4-1 0.1 0 0.2-0.1 0.1-0.1 0.1-0.2 0.3-0.1 0.5 0.1 0.2 0.2 0.3 0.5 0.1 0.1 0.4 0.8 0.2 0.6 1 1.6 0.2 0.3 0.6 0.3v-0.2q0-0.3-0.1-0.8 0-0.5 0-0.8-0.1-0.6 0-1 0.1-0.6 0.1-1.8v-0.1q0.1 0.1 0.1 0.1 0.1 0.3 0.2 0.4 0-0.1 0-0.1 0 0 0.1 0.2 0.2 0.3 0.2 0.3l-0.1-0.5q0.1 0 0.2 0.3l0.4 0.7q0 0.1 0.1 0.2 0.1 0 0.2 0.2 0.1 0.4 0.3 1.3 0 0.1 0.1 0.6 0.1 0.4 0.1 0.7 0.1-0.1 0.1-0.1 0.2-0.3 0.3-0.4 0.2-0.5 0.3-0.9 0.1-0.5 0.3-1.1 0-0.2 0-0.3-0.1-0.1 0-0.3 0.1-0.2 0.4-0.5 0 0 0.2-0.1 0 0.2 0 0.4 0.1 0.1 0.2 0 0 0 0.1-0.2 0.1 0.1 0.1 0.2 0 0.2 0 0.3 0 0.1 0 0.2 0 0.8-0.3 1.8 0 0.1 0 0.2-0.5 1.1-0.6 1.2-0.4 0.5-0.7 0.7-0.2 0.2-0.1 0.1v0.2q0.2 0.9 0.3 2 0.1 0.9 0.1 1.6 0-0.1 0 1.3-0.1 0.6-0.1 0.9zm11-11.6q0 0 0 0v0.1q0.1 0 0.1-0.1-0.1 0-0.1 0zm-3.2 11.5v0.7q0 0.4 0 1 0 0.1 0 0.4 0 0.2 0 0.6 0.1 0.4 0.1 0.6 0 0.5-0.2 0.8 0 0 0 0.2-0.1 0.1-0.1 0.2-0.1 0.2-0.2 0.2 0 0 0 0 0 0 0 0-0.1 0-0.1 0.1 0 0.1-0.1 0-0.1 0-0.3 0-0.1 0-0.3 0-0.4-0.1-0.3 0-0.2-0.2-0.4-0.2-0.1-0.1-0.2-0.2-0.1-0.1-0.1-0.3-0.1-0.5-0.1-0.8-0.1-0.1-0.1-0.2 0.1-0.4 0-1l-0.1-0.4q-0.1-1.2-0.1-1.6-0.1-0.2-0.1-0.6-0.1-0.5-0.1-0.6 0-0.3-0.1-0.8-0.1-0.6-0.2-1.4 0-0.1 0-0.5 0-0.4 0-0.6 0 0 0-0.2 0-0.1 0-0.2 0-0.1 0-0.4 0-0.3-0.1-0.4-0.1-0.7-0.1-2.2 0-0.9 0.2-1.6 0.1-0.3 0.1-0.5 0.1-0.5 0.3-0.7 0 0 0-0.1 0.1-0.3 0.4-0.7 0.2-0.2 0.4-0.2 0.2 0 0.4 0.2 0.2 0.2 0.3 0.6 0 0 0.3 1.7 0 0 0 0 0.1 1 0.1 1.3 0.1 0.3 0.1 1 0.1 0.7 0.1 1 0 0.1 0.2 1.2 0 0 0.1 0.3 0.3-0.4 0.3-0.4 0.4-0.6 0.6-0.8-0.1 0 0.6-0.7 0.1-0.1 0.1-0.1 0.2-0.2 0.2-0.5 0-0.5 0-1.1 0-0.5 0-1 0-0.2 0.1-1 0-0.4 0-0.6 0-0.1 0.1-0.4 0-0.2 0-0.3 0-0.3 0.2-0.4 0 0 0 0 0.1-0.3 0.4-0.2 0.1 0 0.2 0 0.2-0.1 0.4 0 0.3 0.2 0.4 0.2 0 0 0 0.1 0.1 0.1 0.1 0.1 0.2 0.1 0.1 0.3-0.1 0.2 0 0.3 0.2 0.5 0.3 1.1 0.1 1.1 0.1 1.4 0 0.1 0.1 1.6v0.6q0 0 0 0.1 0 0.1 0 0.1 0.1 0.2 0.1 1.2 0.1 0.7 0.1 1.2 0.1 0.7 0.1 1.1 0 0.2 0 0.8 0.1 0.5 0.1 0.8 0 0.3 0 0.9 0.1 0.4 0.2 0.7 0.1 0.3 0.1 0.8-0.1 0.2-0.1 0.5 0 0.4 0 0.6 0 0.1 0 0.2 0.1 0.3 0 0.5 0 0 0 0.1 0 0.1-0.1 0.1-0.1 0.1-0.1 0.2 0 0-0.2 0.3 0 0.1-0.4 0.4-0.2 0.1-0.4 0.1-0.1 0-0.4 0-0.4-0.1-0.4-0.1-0.2 0-0.4-0.2-0.2-0.2 0-0.5-0.2-0.2-0.1-0.7 0-0.2 0-0.7 0-0.4 0-0.7-0.1-2.3-0.1-2.7 0.1-1.1 0.1-1.3l-0.1-0.5q0 0-0.2 0-0.2 0-0.3 0 0.2 0.1 0.4-0.1-0.1 0.1-0.4 0.3-0.4 0.2-0.4 0.2-0.5 0.6-0.8 1.2 0 0-0.1 0.2-0.2 0.4-0.1 0.7 0 0.1-0.1 0.2 0 0.1 0 0.1zm11.7 1.2q-0.1-0.7-0.6-1.1-0.4-0.5-1.1-0.4-0.6 0-1.1 0.5-0.4 0.5-0.4 1.2 0.1 0.7 0.6 1.1 0.4 0.4 1.1 0.4 0.6 0 1.1-0.5 0.4-0.5 0.4-1.2zm-1.7 3q-1.9 0-2.8-1.6-0.4-0.6-0.6-1.6-0.1-0.4 0.1-1 0.2-0.8 0.8-1.5 0.6-0.7 1.4-0.9 0.7-0.2 1.3-0.2 0.3 0 0.6 0.1 1.2 0.3 1.5 0.4 0 0.1 0.2 0.1 0.4 0 0.5 0.3 0.4 0.7 0.5 1 0 0 0.1 0.3 0.2 0.4 0.2 0.8 0 0.1 0 0.2-0.2 1-0.3 1.1 0 0.1-0.1 0.2-0.4 0.8-0.8 1.1-0.6 0.6-1.3 0.9-0.4 0.3-1.3 0.3zm7.7-15q0.1-0.5 0.4-0.6 0.3 0.2 0.4 0.5 0-0.1 0.2 0.5 0.1 0.3 0.1 0.5 0.2 0.6 0.4 1.6 0.2 1.3 0.4 2 0 0.1 0.2 0.9 0.1 0.6 0.2 1 0.2 1.3 0.3 2.7 0 0.2 0.1 0.3 0.1 0 0.1 0 0.7 0.1 1.3 0.3 0.6 0.2 1 0.5 0.2 0.2 0.3 0.5-0.5 0.2-0.9 0.4-0.6 0.2-1.5 0.3-0.2 0-0.3 0.1 0.1 0.8 0.1 1 0.1 0.3 0.1 1 0 0.1-0.1 0.4 0 0.1-0.2 0.1-0.1 0.1-0.2 0.1-0.1 0.1-0.2 0.1 0 0 0 0.1-0.1 0-0.1 0-0.2 0-0.3 0.1-0.2 0.1-0.3 0 0 0-0.1 0.1 0 0-0.1 0.1 0 0 0 0-0.2-0.1-0.1-0.1-0.1 0-0.2-0.1-0.3-0.2-0.5-0.2 0 0 0 0-0.3-0.1-0.3 0-0.1-0.1-0.2-0.2 0-0.1 0-0.2-0.1-0.3-0.1-0.6 0-0.3 0.1-1v-0.1q-0.1-0.1-0.4 0-0.3 0-0.8 0-0.3 0-0.5-0.2 0 0-0.2 0v-0.1q0 0 0-0.1-0.1 0-0.1 0-0.2-0.1-0.2-0.2v-0.4q0 0 0-0.1 0-0.1 0-0.1 0-0.2-0.2-0.3 0.1-0.1 0.1-0.1 0.1-0.1 0.1-0.1 0-0.1 0.1-0.2 0 0 0-0.1 0 0.1 0.4-0.3 0-0.2 0.1-0.2 0.1 0 0.2 0 0-0.1 0.1-0.1 0 0 0.1-0.1 0.9-0.1 1-0.1 0.2 0 0.2 0 0-0.2 0-0.5 0-0.3 0-0.4 0-1.4 0-1.6-0.1-0.4-0.1-1.1-0.1-0.8-0.1-1.1 0-0.5 0-1.5v-0.9q0-1.2 0.2-2.2zm9.6 7q-0.1-0.2-0.2-0.2 0 0 0 0-0.1 0-0.2-0.1-0.1-0.1-0.1-0.2-0.1-0.1-0.3-0.3-0.1-0.1-0.4-0.5-0.3-0.3-0.5-0.5-0.1-0.1-0.3-0.3-0.2-0.3-0.3-0.4 0 0-0.1-0.1-0.1 0-0.2 0.1-0.1 0.2-0.1 0.2v-0.1q0 0 0 0-0.1 0-0.2 0.2-0.1 0.1-0.2 0.1 0-0.2 0-0.2 0.1-0.1 0.1-0.2 0-0.2 0-0.3 0 0 0-0.1 0-0.1 0.1-0.2 0.1-0.2-0.1-0.4 0-0.1 0-0.3 0.2 0 0.2 0 0.2 0 0.3-0.1 0.4-0.6 0.8-1.2 0.6-1 1.4-1.9 0.6-0.8 1.5-1.6 0.1-0.2 0.5-0.4 0.1-0.1 0.3-0.2 0.2-0.1 0.3-0.2 0.2-0.2 0.4-0.4 0.1-0.1 0.2 0-0.1 0-0.1 0.2-0.1 0.1-0.1 0.2 0.2 0.3 0.2 0.5 0 0.2-0.1 0.4-0.2 0.2-0.5 0.5-0.3 0.4-0.4 0.6-0.2 0.1-0.5 0.5-0.3 0.3-0.4 0.5-0.2 0.2-0.6 0.7-0.6 0.8-0.5 0.7 0-0.1-0.9 1.1l-0.4 0.5q0.1-0.1-0.1 0.1 0 0 0.1 0.1 0 0 0 0.1 1.1 0.7 1.6 1.1 0.1 0 0.1 0 0.9 0.5 2.2 1.7 0 0.1 0.3 0.4 0.2 0.2 0.2 0.2 0.1 0.1 0.1 0.2 0.2 0.2 0.2 0.3 0.1 0.2 0.1 0.2-0.1 0.2 0 0.4 0 0 0 0.1v0.1l-0.1-0.1h-0.1q0.2 0.3 0.3 0.4 0 0-0.1 0 0 0-0.1-0.1-0.1-0.1-0.2-0.1-0.1 0.1-0.2 0.3-0.2 0.3-1.1 1.3l-0.2 0.3q-0.2 0.2-0.6 0.6-0.4 0.4-0.5 0.6-0.1 0.1-0.1 0.2 0-0.1 0.1-0.1 0.1 0 0.1 0 1.2-0.2 2.3-0.1 0.2 0 0.5 0 0.3 0.1 0.3 0.2 0.1 0 0.3 0.1 0.1 0 0.1 0.1 0 0-0.1 0.1 0 0 0 0.1h-0.3q0.2 0.1 0.4 0.1 0 0 0.3 0 0 0.2 0 0.2 0 0.1 0 0.1 0.1 0 0.1 0.1 0 0.2 0 0.2-0.2 0.1-0.3 0.2 0 0-0.1 0 0 0-0.1 0 0 0.1 0 0.1 0 0.1 0.1 0.1 0 0 0.1 0-0.2 0.1-0.5 0.2-0.1 0-0.5 0.1-0.3 0-0.5 0.1-0.1 0-0.3 0-0.2 0-0.7 0-0.4 0-0.6 0-1.5 0.1-1.5 0.1-0.4 0-0.6-0.1-0.3 0-0.6-0.1-0.1 0-0.2 0-0.4-0.1-0.5 0.2 0 0-0.1 0 0 0 0 0.1-0.1-0.1-0.1-0.1 0.2-0.2 0.1-0.5-0.1-0.1-0.1-0.1-0.1 0-0.1-0.1 0-0.2 0.1-0.4 0.1-0.2 0.2-0.2 0.1-0.1 0.2-0.1 1.6-2.1 1.7-2.2 0.3-0.3 0.5-0.6 0.4-0.6 1.2-1.4 0.2-0.1 0.2-0.2 0-0.1 0-0.1-0.1-0.1-0.3-0.2-0.2-0.2-0.3-0.2 0 0-0.1-0.1 0-0.1-0.2-0.1-0.2-0.1-0.2-0.3-0.1 0-0.1-0.1 0 0-0.1 0-0.1 0-0.1 0-0.1-0.1-0.1-0.1zm8.9 6.2q-0.1 0.1-0.2 0.1-0.1 0-0.1 0-0.1 0-0.2 0-0.1 0.2-0.2 0.2-0.1 0-0.1 0 0-0.1-0.1-0.1 0.1 0-0.1 0.1 0 0-0.1-0.1 0 0.1 0 0.1 0 0.1 0 0.1h-0.2q-0.2-0.1-0.3-0.1 0 0.1-0.1 0-0.1 0-0.1 0 0 0.1-0.1 0-0.1 0-0.1 0 0 0-0.1 0.1-0.1-0.1-0.1-0.1 0-0.1-0.1-0.1 0 0-0.1 0.1 0 0 0 0.1-0.1 0-0.1 0-0.1 0-0.1 0l-0.1 0.2q-0.2-0.5-0.2-0.8 0-0.2-0.1-0.5 0-0.4 0-0.6 0-0.6 0-0.9-0.1-0.8-0.2-2.2-0.1-1.1-0.1-1.7-0.2-2.2-0.2-3.6-0.1-1.9 0.3-3.9 0.2-1.3 0.3-1.7 0 0 0-0.1 0.1-0.4 0.4-0.6 0.2-0.2 0.4 0 0.1 0 0.2 0.1 0.3 0.2 0.3 0.5 0 0 0.4 1.4 0.2 1 0.4 2 0.1 1.3 0.3 3.4 0.3 2.9 0.4 5.8 0 0.2 0 1.8 0 0.1 0 0.3 0.1 0.2 0.1 0.4 0 0.2 0 0.3zm11.1-0.7q-0.1 0.1-0.2 0.2-0.1 0-0.1 0-0.1-0.1-0.2-0.1-0.1 0.3-0.2 0.2 0 0.1-0.1 0 0 0 0 0 0 0-0.2 0.1 0 0-0.1-0.1 0 0 0 0.1 0 0.1 0 0.1h-0.2q-0.2-0.1-0.3-0.1 0 0-0.1 0-0.1-0.1-0.1 0 0 0-0.1 0-0.1-0.1-0.1-0.1 0 0.1-0.1 0.2-0.1-0.1-0.1-0.1 0-0.1-0.1-0.1 0 0-0.1 0.1 0 0 0 0-0.1 0-0.1 0-0.1 0-0.1 0l-0.1 0.2q-0.2-0.4-0.2-0.8 0-0.1 0-0.5-0.1-0.3-0.1-0.5 0-0.6 0-1-0.1-0.7-0.2-2.2 0-1.1-0.1-1.6-0.2-2.3-0.2-3.6-0.1-2 0.3-3.9 0.2-1.3 0.3-1.7 0-0.1 0-0.2 0.1-0.4 0.4-0.6 0.3-0.2 0.4 0 0.1 0.1 0.3 0.2 0.2 0.2 0.2 0.5 0-0.1 0.4 1.3 0.2 1 0.4 2.1 0.2 1.3 0.3 3.3 0.3 2.9 0.4 5.9 0 0.1 0 1.7 0 0.2 0 0.4 0.1 0.2 0.1 0.3 0 0.2 0 0.3zm10.8-7.3q-0.1-0.1-0.2-0.1 0 0-0.1-0.1 0 0-0.1-0.1-0.1-0.1-0.2-0.1 0-0.2-0.2-0.4-0.1-0.1-0.4-0.5-0.3-0.3-0.5-0.5-0.1-0.1-0.3-0.3-0.2-0.2-0.3-0.4 0 0-0.1-0.1-0.1 0.1-0.2 0.2-0.1 0.1-0.1 0.1v-0.1q0 0 0 0-0.1 0-0.2 0.2-0.1 0.1-0.2 0.2 0-0.3 0-0.3 0.1-0.1 0.1-0.2 0-0.2 0-0.3 0 0 0-0.1 0-0.1 0-0.1 0.2-0.3 0-0.5-0.1-0.1 0-0.2 0.2 0 0.2-0.1 0.2 0 0.3-0.1 0.4-0.6 0.8-1.2 0.6-1 1.4-1.9 0.6-0.8 1.5-1.6 0.1-0.2 0.5-0.4 0.1-0.1 0.3-0.2 0.2-0.1 0.3-0.2 0.2-0.2 0.4-0.3 0.1-0.1 0.2-0.1-0.1 0.1-0.1 0.2-0.1 0.1-0.1 0.2 0.2 0.3 0.2 0.5 0 0.2-0.1 0.4-0.2 0.2-0.5 0.5-0.3 0.4-0.4 0.6-0.2 0.1-0.5 0.5-0.3 0.3-0.4 0.5-0.2 0.2-0.6 0.8-0.6 0.7-0.5 0.6 0 0-0.9 1.1l-0.4 0.5q0-0.1-0.1 0.2 0 0 0.1 0 0 0.1 0 0.1 1.1 0.7 1.6 1.1 0.1 0 0.1 0.1 0.9 0.5 2.2 1.6 0 0.1 0.3 0.4 0.2 0.2 0.2 0.3 0.1 0 0.1 0.1 0.2 0.3 0.2 0.4 0.1 0.1 0.1 0.2-0.1 0.1 0 0.3 0 0.1 0 0.1v0.1l-0.1-0.1-0.1 0.1q0.2 0.2 0.3 0.3 0 0-0.1 0 0 0-0.1-0.1-0.1-0.1-0.2-0.1-0.1 0.1-0.2 0.3-0.2 0.3-1.1 1.4l-0.2 0.3q-0.2 0.2-0.6 0.6-0.4 0.4-0.6 0.6 0 0 0 0.1 0 0 0.1 0 0.1 0 0.1-0.1 1.2-0.1 2.3-0.1 0.2 0 0.5 0.1 0.3 0 0.3 0.1 0.1 0 0.3 0.1 0.1 0 0.1 0.1 0 0.1-0.1 0.1 0 0 0 0.1h-0.3q0.2 0.1 0.4 0.1 0 0 0.3 0 0 0.2 0 0.2 0 0.1 0 0.1 0.1 0.1 0.1 0.1 0 0.2 0 0.2-0.2 0.1-0.3 0.2 0 0-0.1 0 0 0-0.1 0 0 0.1 0 0.1 0 0.1 0.1 0.1 0 0 0.1 0-0.2 0.1-0.5 0.2-0.1 0-0.5 0.1-0.3 0-0.5 0.1-0.1 0-0.3 0-0.2 0-0.7 0-0.4 0-0.6 0.1-1.5 0-1.5 0-0.4 0-0.6 0-0.3-0.1-0.6-0.2-0.1 0-0.2 0-0.4 0-0.5 0.2-0.1 0-0.1 0 0 0.1 0 0.1-0.1-0.1-0.1-0.1 0.2-0.2 0.1-0.5-0.1 0-0.2-0.1 0 0 0 0 0-0.2 0.1-0.5 0.1-0.2 0.2-0.2 0.1 0 0.2-0.1 1.6-2.1 1.7-2.2 0.3-0.3 0.5-0.6 0.4-0.6 1.2-1.4 0.2-0.1 0.2-0.2 0-0.1 0-0.1-0.1 0-0.3-0.2-0.2-0.2-0.3-0.2 0 0-0.1-0.1 0-0.1-0.2-0.1-0.2-0.1-0.2-0.3-0.1 0-0.1 0 0 0-0.1-0.1-0.1 0-0.1 0-0.1-0.1-0.1-0.1zm11.4-7.3l-0.3 0.1q-0.1 0-0.1 0.1-0.4 0.2-1.1 0.3-0.1 0-0.2 0-0.4 0.1-0.7 0.1-0.6 0-0.8 0-0.2 0-0.3 0.1-0.1 0-0.1 0.1 0 0.4 0.1 0.5 0 0.5 0.1 1.5 0.2 1 0.2 1.6 0.1 0.7 0.1 0.8 0.1 0.1 0.1 0.5 0 0 0 0.1 0 0.2 0 0.3 0.2 1.9 0.4 3.1 0.1 0.4 0.2 0.9v0.2q0 0.1 0.2 0.1-0.1 0 0.8 0 0.7-0.1 1.4 0 0.2 0.1 1.1 0.3 0.2 0 0.5 0.2 0 0.1 0 0.1 0 0.1 0.1 0.2 0 0 0.1 0 0.1 0.1 0.2 0.1 0 0 0 0 0 0 0 0.1-0.1 0-0.2 0 0 0-0.1 0 0 0 0 0 0 0-0.1 0.1 0 0 0.1 0 0.1 0.2 0.1 0.2 0.1 0.1-0.1 0.1-0.1 0 0 0.1 0 0 0.2 0 0.1 0 0.2 0 0.1 0 0.1 0.1 0 0-0.1 0 0.1 0-0.2 0.1-0.1 0 0 0 0 0.1 0.1 0.1 0.2 0 0.2 0 0.1 0 0.1 0.1-0.1 0-0.2 0.1-0.1 0-0.2 0 0 0.1-0.1 0.1-0.1 0-0.2 0.1 0 0.1-0.2 0.2-0.1 0-0.3 0.1-0.2 0.1-0.4 0.2-0.3 0.1-0.5 0.2-0.4 0.1-1.2 0.2-0.5 0.1-0.8 0.2-0.1 0.1-0.3 0.1 0 0-0.5 0-1 0.1-1.5 0.1 0 0.1 0 0 0 0 0.1 0 0 0 0.1 0 0-0.1-0.1-0.1 0 0 0-0.1-0.5-0.3-0.6-0.6-0.2-0.3-0.2-0.5-0.1-0.2-0.1-0.3-0.1-0.9-0.1-1.3 0-0.9-0.1-1.3 0-0.1 0-0.1 0-0.3-0.1-0.9 0-0.3 0-0.6 0-0.5 0-1 0-1.3 0-1.5-0.1-0.7-0.2-1.3 0-0.1 0-0.2-0.1-0.1-0.1-0.3 0-0.2 0-0.8 0-0.1 0-0.4-0.1-0.1-0.1-0.6 0-0.4 0-0.6 0 0 0-0.9 0-0.1-0.1-0.6 0-0.4 0-0.5 0.1-0.3 0-0.4-0.1-0.1-0.1-0.3 0.1-0.3 0.3-0.5 0.3-0.3 0.3-0.3 0.1 0 0.1 0 0.1 0 0.2-0.1 0.1-0.1 0.2-0.1 0.2-0.2 0.6-0.3 0 0 0.5 0 0.4-0.1 0.6-0.1 0.8 0 1 0 0.3 0 0.7-0.1 0.4 0 0.9 0.3 0.1 0.1 0.1 0.1 0.2 0.1 0.3 0.5l0.3 0.5q-0.1 0-0.1 0 0 0 0 0.1 0 0 0 0 0.1 0.3 0 0.6-0.1 0.1-0.1 0.3 0.1 0.2-0.1 0.4zm10.4-3.4q0 0.1 0 0.2 0.1-0.1 0.2-0.3 0.1-0.1 0.1-0.2 0.2 0.3 0.2 0.9-0.1 1-0.1 1.2-0.1 0.7-0.3 1.2-0.3 0.9-1 1.7-0.1 0-0.3 0.2-0.1 0.1-0.1 0.2-0.2 0.1-0.2 0.3 0.1 0.5 0 1.7-0.1 1.1 0 1.8v1.1q0-0.1 0.1 0.2 0.6 0.1 1.6 0.6-0.1 0-0.1 0 0.2 0.2 0.1 0.1 0 0.1 0 0.1 0 0 0 0 0 0-0.1 0 0 0 0 0 0 0 0 0h0.1q0 0.1 0 0.1 0 0 0.1 0 0.1 0.1 0.1 0.1 0 0-0.1 0.1 0 0 0 0 0 0.1 0 0.1 0.1 0.2 0.1 0.1 0 0 0 0.1 0 0 0 0 0 0 0 0-0.3 0.2-0.7 0.2-0.1 0-0.4 0.1-0.2 0-0.6 0.1 0 0.2 0.1 0.8 0.1 0.1 0.2 0.1 0.4 0.2 0.8 0.6 0.3 0.2 0.4 0.4 0 0 0.3 0.4 0.2 0.2 0.4 0.7 0.1 0.2 0.1 0.3-0.1 0.1 0 0.3 0 0-0.2 0.1 0 0.1-0.2 0.5-0.1 0-0.1 0.1-0.1 0-0.1 0 0 0.1 0 0.1-0.3 0.1-0.5 0.1-0.1 0-0.2 0-0.3-0.7-0.5-1-0.5-0.9-0.5-0.8-0.1-0.3-0.3-0.4-0.1 0.1-0.1 0.2-0.2 0.5-0.3 1-0.4 0.7-0.6 0.8-0.2 0.2-0.2 0.3-0.2 0-0.3-0.1-0.4-0.5-0.4-1 0 0.1-0.1-0.5-0.1-0.4-0.1-0.4 0 0-0.1 0 0 0.1-0.1 0.1-0.2 0-0.5 0.4-0.3 0.2-0.6 0.6-0.2 0.3-0.2 0.4 0 0.2-0.2 0.3-0.1 0-0.2 0h-0.3q0 0-0.1-0.1 0.3-1 0.2-1 0.5-1.4 1.6-2.3 0 0 0.5-0.3 0-0.2-0.1-0.4 0 0-0.3 0-0.8 0-0.9 0-0.1-0.1-0.5-0.1 0 0-0.1-0.1 0 0-0.1 0-0.2 0-0.3-0.2-0.1-0.1-0.1-0.2 0.1-0.5 0.3-0.6 0.3-0.4 0.7-0.5 0.4-0.1 1.2-0.3 0 0 0.1 0 0.1-0.1 0-0.3 0-0.2 0-0.5-0.1-0.3-0.1-0.5-0.2-0.8-0.4-2.4 0-0.1-0.1-0.5 0-0.3-0.1-0.5 0 0 0-0.2-0.2-0.1-0.3-0.1-0.7-0.4-1.2-0.8-0.3-0.2-0.6-0.5-0.4-0.5-0.5-1.3-0.2-0.5-0.2-1 0-0.3 0.1-0.6 0-0.1 0.1-0.3 0.1-0.3 0.4-0.3 0.3-0.1 0.5 0.3 0.1 0.2 0.3 0.5 0.1 0.6 0.5 1.1 0.3 0.4 0.6 0.6 0 0 0.2 0.1 0-0.2 0-0.2 0-0.7 0-0.7-0.1-0.7 0.1-1.3 0-0.1 0-0.2 0-0.2 0.2-0.2 0 0 0.1-0.1 0 0 0.1 0 0.1 0 0.2-0.2 0-0.1 0.3-0.1h0.2q0.1 0.2 0.3 0.2 0 0 0.3 0 0.1 0.2 0.1 0.2 0 0 0.2 0.1 0.2 0.1 0.3 0.2 0-0.1 0.2-0.1 0.1 0.2 0.2 0.4 0 0.1 0 0.5 0 0.2 0.1 0.4 0 0.4 0 0.5 0.1 0 0.1 0 0.2-0.1 0.3-0.4 0.3-0.6 0.6-1.4 0-0.1 0-0.2 0.1-0.3 0.4-0.3 0.1 0 0.1-0.1 0 0 0.1-0.1 0.1-0.1 0.1-0.1 0 0 0 0.1zm9.5-0.5q0 0.1 0 0.1 0.1 0 0.2-0.2 0.1-0.2 0.2-0.3 0.2 0.4 0.1 1 0 0.9-0.1 1.2-0.1 0.7-0.2 1.2-0.3 0.8-1.1 1.6-0.1 0.1-0.2 0.2-0.1 0.1-0.2 0.2-0.1 0.1-0.1 0.3 0 0.5-0.1 1.8 0 1.1 0 1.7l0.1 1.1q0 0 0 0.2 0.6 0.1 1.6 0.6-0.1 0.1-0.1 0.1 0.2 0.2 0.1 0.1 0.1 0 0.1 0-0.1 0.1-0.1 0.1v-0.1q0 0.1 0 0.1h-0.1q0 0 0 0 0 0 0.1 0 0 0 0 0 0.1 0 0.1 0.1 0.1 0 0.2 0-0.1 0.1-0.1 0.1-0.1 0.1-0.1 0.1 0 0 0 0.1 0.2 0.1 0.2 0.1-0.1 0-0.1 0 0 0 0 0 0 0 0 0-0.3 0.2-0.6 0.3-0.2 0-0.4 0-0.2 0.1-0.6 0.2-0.1 0.1 0 0.7 0.2 0.1 0.3 0.2 0.4 0.2 0.8 0.5 0.2 0.3 0.3 0.4 0.1 0.1 0.3 0.4 0.3 0.3 0.5 0.8 0 0.1 0 0.2 0 0.2 0 0.4 0 0-0.2 0.1 0 0.1-0.2 0.5 0 0-0.1 0 0 0-0.1 0.1 0 0 0 0.1-0.3 0-0.5 0-0.1 0.1-0.1 0-0.4-0.7-0.6-1-0.5-0.8-0.4-0.8-0.2-0.2-0.4-0.3 0 0-0.1 0.2-0.2 0.4-0.3 0.9-0.4 0.7-0.5 0.9-0.2 0.2-0.3 0.2-0.1 0-0.2-0.1-0.4-0.5-0.5-0.9 0 0.1-0.1-0.5 0-0.5 0-0.4-0.1 0-0.1 0-0.1 0-0.1 0-0.3 0.1-0.6 0.4-0.3 0.3-0.6 0.7-0.2 0.2-0.2 0.4 0 0.2-0.2 0.2-0.1 0.1-0.2 0h-0.3q0 0-0.1 0 0.3-1.1 0.3-1 0.4-1.4 1.6-2.4-0.1 0.1 0.4-0.2 0-0.2 0-0.5-0.1 0-0.4 0-0.8 0-0.8 0-0.2 0-0.5-0.1-0.1 0-0.1 0-0.1 0-0.1 0-0.2-0.1-0.4-0.3 0-0.1 0-0.1 0-0.5 0.2-0.7 0.4-0.3 0.7-0.4 0.4-0.1 1.3-0.3 0 0 0.1-0.1 0 0 0-0.3-0.1-0.1-0.1-0.5-0.1-0.3-0.1-0.4-0.1-0.8-0.4-2.4 0-0.2-0.1-0.5 0-0.4 0-0.6 0 0.1-0.1-0.1-0.2-0.2-0.2-0.2-0.8-0.3-1.3-0.8-0.3-0.2-0.5-0.5-0.4-0.5-0.6-1.3-0.1-0.5-0.1-0.9 0-0.3 0-0.7 0-0.1 0.1-0.2 0.1-0.4 0.4-0.4 0.3 0 0.5 0.3 0.2 0.2 0.3 0.6 0.2 0.5 0.5 1.1 0.3 0.4 0.6 0.6 0 0 0.2 0 0-0.1 0-0.1 0-0.8 0-0.8 0-0.6 0.1-1.3 0-0.1 0-0.2 0.1-0.1 0.2-0.2 0.1 0 0.1 0 0.1 0 0.1-0.1 0.2 0 0.2-0.1 0.1-0.1 0.3-0.2h0.2q0.2 0.2 0.3 0.2 0 0 0.3 0.1 0.1 0.2 0.1 0.2 0 0 0.3 0.1 0.1 0.1 0.2 0.1 0 0 0.2 0 0.2 0.1 0.2 0.4 0 0.1 0 0.4 0.1 0.3 0.1 0.4 0 0.4 0 0.6 0.1 0 0.2-0.1 0.1-0.1 0.2-0.3 0.3-0.6 0.6-1.4 0.1-0.2 0.1-0.3 0-0.2 0.3-0.3 0.1 0 0.2 0 0-0.1 0-0.2 0.1 0 0.1-0.1 0.1 0.1 0 0.2zm8.9-1.1q0.1 0 0.2 0.1 0.1 0 0.1 0 0.1 0 0.2 0.2 0.1 0.7 0.1 0.8 0 0.2 0 0.4-0.2 0.6-0.6 1.4-0.2 0.5-0.5 1.2-0.5 1.3-1.5 2.9-0.2 0.4-0.7 1.1-0.5 0.8-0.6 1.2l-0.8 1.3q0 0 0 0.1 0.1 0 0.3-0.1 1.4-0.4 2.9-0.4 0.5-0.1 0.8 0 0.4 0.1 0.5 0.4 0.1 0 0.1 0 0.3 0.3 0.5 0.9-0.1-0.1 0 0.7-0.1 0.1-0.2 0.4-0.2 0.8-0.6 1.6-0.3 0.5-0.5 0.9l-0.3 0.5q-0.2 0.4-1.1 1.1 0 0.1-0.1 0.1-0.1-0.1-0.2 0.1l-0.3 0.1q-0.1 0.1-0.2 0.2-0.1 0.1-0.3 0.1-0.1-0.2-0.1-0.2-0.1 0 0-0.1 0 0 0 0-0.1-0.3-0.2-0.4-0.3-0.1-0.3-0.3 0 0-0.1 0 0 0-0.1 0-0.1-0.2 0-0.4 0.2-0.5 0.3-0.5 0.4-0.9 1-1.7l0.4-0.5q0 0 0.1-0.2-0.1 0-0.1 0-2.4-0.4-2.6-0.5-0.1 0-0.3 0-0.1 0-0.2 0-0.1 0-0.3 0-0.1 0-0.2 0-0.2 0.1-0.4 0.1 0.1-0.2-0.3-0.6 0 0 0-0.1-0.1 0-0.1-0.1-0.1-0.1 0-0.3 0.2-0.1 0.3-0.2 0.1-0.1 0.2-0.2v-0.1q0.2-0.5 0.9-1.5 0.9-1.6 1.7-3.1 0.7-1.4 1.9-3.7 0.6-1.1 1-2.2 0.1-0.3 0.3-0.5zm7.7 13.6q0-0.7-0.5-1.1-0.5-0.4-1.2-0.4-0.6 0.1-1 0.5-0.5 0.5-0.4 1.2 0 0.7 0.5 1.1 0.5 0.5 1.1 0.5 0.7-0.1 1.1-0.6 0.4-0.5 0.4-1.2zm-1.7 3.1q-1.9 0-2.8-1.6-0.4-0.7-0.5-1.7-0.1-0.4 0.1-1 0.2-0.7 0.8-1.4 0.5-0.7 1.3-1 0.7-0.2 1.4-0.2 0.3 0 0.6 0.1 1.1 0.4 1.4 0.5 0.1 0 0.3 0 0.3 0 0.5 0.3 0.4 0.8 0.4 1 0 0.1 0.1 0.3 0.2 0.5 0.2 0.8 0.1 0.2 0 0.2-0.2 1-0.2 1.2-0.1 0.1-0.1 0.2-0.5 0.8-0.9 1.1-0.6 0.5-1.3 0.9-0.4 0.2-1.3 0.3zm8.4-0.8q-0.1 0.1-0.2 0.1 0 0-0.1 0-0.1 0-0.1-0.1-0.2 0.3-0.3 0.3 0 0-0.1 0 0-0.1 0-0.1 0 0-0.1 0.1-0.1 0-0.2-0.1 0 0.1 0 0.1 0 0.1 0 0.1h-0.2q-0.2-0.1-0.3-0.1 0 0-0.1 0 0 0-0.1 0 0 0-0.1 0 0-0.1-0.1-0.1 0 0.1-0.1 0.2-0.1-0.1-0.1-0.1 0-0.1-0.1-0.1 0 0-0.1 0.1 0 0 0 0.1 0 0-0.1 0-0.1 0-0.1 0l-0.1 0.2v-0.1q-0.2-0.4-0.2-0.7 0-0.2 0-0.6-0.1-0.3-0.1-0.5 0-0.6 0-0.9 0-0.8-0.1-2.2-0.1-1.2-0.2-1.7-0.2-2.2-0.2-3.6 0-1.9 0.3-3.9 0.2-1.3 0.3-1.7 0 0 0-0.1 0.1-0.4 0.4-0.7 0.3-0.1 0.5 0.1 0 0 0.2 0.1 0.2 0.2 0.2 0.5 0 0 0.4 1.4 0.2 1 0.4 2 0.2 1.3 0.3 3.3 0.3 3 0.4 5.9 0.1 0.1 0.1 1.8 0 0.1 0 0.3 0 0.2 0 0.3 0 0.2 0 0.4zm4.2-0.3q-0.1 0.1-0.2 0.2 0 0-0.1-0.1-0.1 0-0.1 0-0.2 0.2-0.3 0.2 0 0.1 0 0-0.1 0-0.1 0 0 0-0.1 0-0.1 0.1-0.1 0-0.1 0-0.1 0.1 0 0.1 0 0.1h-0.1q-0.3-0.1-0.4-0.1 0 0-0.1-0.1 0 0 0 0-0.1 0.1-0.1 0.1-0.1-0.1-0.1-0.1-0.1 0-0.2 0.1 0 0 0 0-0.1-0.2-0.2-0.1 0 0 0 0-0.1 0.1-0.1 0.1 0 0-0.1 0-0.1 0-0.1 0v0.2h-0.1q-0.2-0.4-0.2-0.8 0-0.2 0-0.5 0-0.3 0-0.5 0-0.7-0.1-1 0-0.7-0.1-2.2-0.1-1.1-0.2-1.6-0.2-2.3-0.2-3.6 0-2 0.3-3.9 0.3-1.4 0.3-1.7 0-0.1 0.1-0.2 0.1-0.4 0.3-0.6 0.3-0.2 0.5 0 0 0.1 0.2 0.2 0.2 0.1 0.3 0.5 0-0.1 0.3 1.3 0.3 1 0.4 2 0.2 1.3 0.4 3.4 0.2 2.9 0.4 5.9 0 0.1 0 1.7 0 0.1 0 0.4 0 0.2 0 0.3 0 0.2 0 0.3z"/><path class="g" d="m189.1 368.2q0.6 0.2 1.1 0.7 0.5 0.4 0.8 1 0.4 0.6 0.5 1.2 0.2 0.7 0.1 1.4v0.1q-0.2 1.3-0.9 2.1-0.6 0.8-1.5 1.1-0.5 0.1-0.9 0.1-0.4 0-0.8-0.1-0.3 0-0.6-0.2-0.3-0.1-0.6-0.2-0.6-0.4-0.9-0.8-0.4-0.5-0.6-1-0.2-0.5-0.2-1-0.1-0.4-0.1-0.9 0.1-1.1 0.6-2.2-0.6 0.8-0.9 1.4-0.3 0.7-0.3 1.3 0 0.6 0.1 1.1 0.1 0.5 0.3 0.9 0.6 1 1.6 1.7-0.6-0.2-1.1-0.7-0.5-0.4-0.9-1-0.3-0.6-0.4-1.3-0.2-0.7-0.1-1.4 0.1-0.6 0.3-1.1 0.3-0.6 0.6-1 0.3-0.4 0.7-0.6 0.4-0.3 0.8-0.5 0.5-0.1 0.9-0.1 0.4 0 0.8 0.1 0.3 0 0.6 0.2 0.3 0.1 0.6 0.2 0.6 0.4 0.9 0.9 0.4 0.4 0.6 0.9 0.2 0.5 0.2 1 0.1 0.5 0.1 0.9-0.1 1.1-0.6 2.2 0.6-0.7 0.9-1.4 0.2-0.7 0.3-1.3 0-0.6-0.1-1.1-0.1-0.5-0.3-0.9-0.6-1-1.6-1.7zm-1.9 6.4q0.5 0.1 1-0.1 0.5-0.1 0.9-0.4 0.4-0.3 0.6-0.8 0.3-0.4 0.3-0.9 0.1-0.6 0-1-0.2-0.5-0.5-0.9-0.3-0.4-0.7-0.7-0.5-0.2-1-0.3-0.5-0.1-1 0.1-0.5 0.1-0.9 0.4-0.4 0.3-0.6 0.8-0.3 0.4-0.3 0.9-0.1 0.6 0 1.1 0.2 0.4 0.5 0.8 0.3 0.4 0.7 0.7 0.4 0.2 1 0.3zm3.3-17.3q0.6 0.3 1.1 0.7 0.5 0.5 0.8 1 0.4 0.6 0.5 1.3 0.1 0.6 0.1 1.3l-0.1 0.2q-0.1 1.3-0.8 2-0.7 0.8-1.5 1.1-0.5 0.2-0.9 0.2-0.4 0-0.8-0.1-0.4-0.1-0.7-0.2-0.3-0.1-0.5-0.3-0.6-0.4-1-0.8-0.3-0.5-0.5-0.9-0.2-0.5-0.3-1 0-0.5 0-1 0.1-1 0.5-2.1-0.5 0.7-0.8 1.4-0.3 0.6-0.3 1.2-0.1 0.6 0 1.1 0.2 0.5 0.4 0.9 0.5 1 1.6 1.8-0.6-0.3-1.1-0.8-0.5-0.4-0.9-1-0.3-0.6-0.5-1.3-0.1-0.6 0-1.3 0.1-0.7 0.3-1.2 0.2-0.5 0.5-0.9 0.4-0.4 0.8-0.7 0.3-0.3 0.8-0.4 0.5-0.2 0.9-0.2 0.4 0 0.7 0.1 0.4 0.1 0.7 0.2 0.3 0.1 0.6 0.3 0.5 0.4 0.9 0.8 0.4 0.5 0.5 1 0.2 0.4 0.3 0.9 0.1 0.5 0 1 0 1-0.5 2.1 0.6-0.7 0.8-1.4 0.3-0.7 0.4-1.2 0-0.6-0.1-1.1-0.1-0.5-0.4-1-0.5-0.9-1.5-1.7zm-2 6.4q0.6 0.1 1.1 0 0.5-0.2 0.8-0.5 0.4-0.3 0.7-0.7 0.2-0.5 0.3-1 0.1-0.5-0.1-1-0.1-0.5-0.4-0.9-0.3-0.4-0.7-0.6-0.5-0.3-1-0.3-0.5-0.1-1 0-0.5 0.2-0.9 0.5-0.4 0.3-0.6 0.7-0.3 0.4-0.4 1 0 0.5 0.1 1 0.1 0.5 0.4 0.9 0.4 0.4 0.8 0.6 0.4 0.3 0.9 0.3zm7.6 4.7l0.1-1.4q0.1-1 0.1-1.5 0.1-0.5 0.2-0.8 0.1-0.3 0.1-0.4-0.9 1.8-1.2 3.4-0.3 1.5-0.1 2.8 0.2 1.3 0.8 2.4 0.5 1.1 1.3 1.9 1.7 1.9 4.6 3.2-1.6-0.2-2.8-0.8-1.2-0.6-2.2-1.4-0.9-0.9-1.6-1.9-0.7-1-1.1-2.2-0.4-1.1-0.5-2.2-0.1-1.2 0-2.3 0.2-1.4 0.7-2.5 0.6-1.2 1.3-2 0.7-0.9 1.6-1.5 0.9-0.6 1.9-0.9 1.1-0.3 2.1-0.3 1.1-0.1 2 0.1 0.9 0.1 1.7 0.4 0.8 0.3 1.4 0.6 1 0.6 1.6 1.5 0.7 0.8 1.1 1.7 0.5 0.9 0.7 1.8 0.3 1 0.4 1.9 0.3 2.2 0.1 4.5 0.6-2 0.6-3.7 0.1-1.7-0.2-3-0.3-1.4-0.9-2.4-0.6-1-1.3-1.7-1.7-1.8-4.2-2.6 1.5 0.2 2.7 0.8 1.3 0.5 2.2 1.4 1 0.8 1.7 1.8 0.7 1 1.1 2.1 0.4 1.1 0.5 2.2 0.2 1.1 0 2.2v0.3q-0.2 1.5-0.7 2.6-0.6 1.2-1.3 2.1-0.7 0.8-1.6 1.5-1 0.6-1.9 0.9-1.1 0.3-2 0.3-1 0-1.8-0.2-0.8-0.1-1.5-0.4-0.7-0.3-1.3-0.6-1.2-0.8-2-1.8-0.9-0.9-1.4-1.9-0.6-1-0.8-2-0.2-1-0.2-2zm13.4 2.2q0.1-0.2 0.2-0.6 0-0.4 0.1-0.8 0-0.5 0-1.1-0.1-1.1-0.6-2.2-0.5-1-1.2-1.9-0.8-0.8-1.8-1.4-1-0.5-2.1-0.7-1.2-0.1-2.3 0.2-1.1 0.3-2 0.9-1 0.6-1.7 1.5-0.7 0.9-1.1 2-0.1 0.3-0.2 0.7-0.1 0.4-0.1 0.9-0.1 0.4 0 0.9 0.1 1.1 0.6 2.2 0.5 1 1.2 1.9 0.8 0.8 1.7 1.4 1 0.5 2.2 0.7 1.2 0.1 2.3-0.2 1.1-0.3 2-0.9 0.9-0.6 1.7-1.5 0.7-0.9 1.1-2zm-7.1-0.2q-0.3-0.1-0.5-0.3-0.3-0.2-0.5-0.5-0.1-0.3-0.2-0.6-0.1-0.3 0-0.7v-0.1q0.1-0.6 0.4-1 0.3-0.3 0.8-0.5 0.4-0.1 0.8 0 0.3 0.1 0.6 0.2 0.3 0.2 0.4 0.4 0.2 0.2 0.3 0.5 0.1 0.2 0.1 0.5 0 0.2 0 0.4-0.1 0.5-0.4 1.1 0.3-0.4 0.5-0.7 0.1-0.4 0.1-0.6 0.1-0.3 0-0.6 0-0.2-0.1-0.4-0.2-0.5-0.7-0.9 0.6 0.3 1 0.9 0.3 0.6 0.2 1.3-0.1 0.6-0.4 1-0.3 0.4-0.8 0.6-0.4 0.1-0.8 0-0.3-0.1-0.6-0.2-0.3-0.2-0.4-0.4-0.2-0.3-0.3-0.5-0.1-0.2-0.1-0.5 0-0.2 0-0.4 0.1-0.6 0.4-1.1-0.3 0.4-0.5 0.7-0.1 0.3-0.1 0.6-0.1 0.3 0 0.5 0 0.3 0.1 0.5 0.2 0.5 0.7 0.8zm20-9l-0.4 3-6.7-3.9zm-9.4 18l0.4-3.2 4 0.5zm2.2 0.3l2.5-2.9 1.6-12.5-4.3-0.6 0.2-1.6 6.9 2.5-5 15.4-1.9-0.3zm6.8-14.2l-1.9 14.8-1.8-0.2zm11.9-2.6l-7.4 2.1 0.4-3zm-6.1 15.2l4.1 0.5-0.4 3.2zm1.3-12.6l-1.6 12.6 1.7 3.4-1.8-0.2-1.1-16.1 7.3-0.8-0.2 1.7zm-2.9 15.6l-1.8-0.3 1.8-14.8zm-0.8-7.6l-3.9-3.5 4.3 0.5zm-4.1-3.5l-0.4 3 3.4 0.4zm17.7 4.6l-5-0.6 13.3-1.2-0.4 2.8-4.9-0.6-1 7.9-1.8-8.2-0.2-0.1 0.9 8.2-1.9-0.2zm4.4-10.6l-1 7.9 4.9 0.6-13.1 0.4 0.2-2 4.9 0.6 1-7.9h0.1l0.9 8.2 1 0.1-1.8-8.3zm6 5.2l13.1-2.5-11.8 3.6zm2.3 1.6l12.3-4.4-0.4 2.5-8.3 1.7 5.3 5.2zm8.3 14.2l-12-5.7 1.6-0.8zm-8.6-14l7.3 4.5-8.1 2.5 5.6-2.8zm10.4 12.2l-0.3 2.4-10.8-7.4 9.8-2.5-6.3 3.4z"/><path class="g" d="m229.8 315h-1.8v-6.8h-4.2v-1.6h4.2v-6h1.8v6h4.1v1.6h-4.1zm9.2-8.4q-1.4 0-2.3-0.8-0.9-0.8-0.9-2.3 0-1.5 0.9-2.3 0.9-0.8 2.3-0.8 1.3 0 2.2 0.8 0.9 0.8 0.9 2.3 0 1.5-0.9 2.3-0.9 0.8-2.2 0.8zm0-1.5q1.4 0 1.4-1.6 0-0.8-0.4-1.2-0.3-0.4-1-0.4-0.8 0-1.1 0.4-0.4 0.4-0.4 1.2 0 0.8 0.4 1.2 0.4 0.4 1.1 0.4zm0 10.1q-1.4 0-2.3-0.8-0.9-0.8-0.9-2.3 0-1.5 0.9-2.3 0.9-0.8 2.3-0.8 1.3 0 2.2 0.8 0.9 0.8 0.9 2.3 0 1.5-0.9 2.3-0.9 0.8-2.2 0.8zm0-1.4q1.4 0 1.4-1.7 0-0.7-0.4-1.2-0.3-0.4-1-0.4-0.8 0-1.1 0.4-0.4 0.5-0.4 1.2 0 0.8 0.4 1.2 0.4 0.5 1.1 0.5zm12.1 1.4q-2 0-3.5-0.9-1.5-0.9-2.3-2.6-0.8-1.7-0.8-3.9 0-2.2 0.8-3.9 0.8-1.6 2.3-2.6 1.5-0.9 3.5-0.9 2.1 0 3.6 0.9 1.5 1 2.3 2.6 0.8 1.7 0.8 3.9 0 2.2-0.8 3.9-0.8 1.7-2.3 2.6-1.5 0.9-3.6 0.9zm0-1.6q2.4 0 3.6-1.6 1.2-1.5 1.2-4.2 0-2.7-1.2-4.2-1.2-1.5-3.6-1.5-2.3 0-3.5 1.5-1.2 1.5-1.2 4.2 0 2.7 1.2 4.2 1.2 1.6 3.5 1.6zm0-4.2q-0.6 0-1.1-0.5-0.5-0.4-0.5-1.1 0-0.6 0.5-1.1 0.5-0.5 1.1-0.5 0.7 0 1.2 0.5 0.5 0.5 0.5 1.1 0 0.7-0.5 1.1-0.5 0.5-1.2 0.5zm15.7 5.8q-2.1 0-3.5-0.9-1.5-0.9-2.3-2.6-0.8-1.7-0.8-3.9 0-2.2 0.8-3.9 0.8-1.6 2.3-2.6 1.5-0.9 3.5-0.9 2.1 0 3.6 0.9 1.4 1 2.3 2.6 0.8 1.7 0.8 3.9 0 2.2-0.8 3.9-0.8 1.7-2.3 2.6-1.5 0.9-3.6 0.9zm0-1.6q2.3 0 3.5-1.6 1.2-1.5 1.2-4.2 0-2.7-1.2-4.2-1.1-1.5-3.5-1.5-2.3 0-3.5 1.5-1.2 1.5-1.2 4.2 0 2.7 1.2 4.2 1.2 1.6 3.5 1.6zm0-4.2q-0.6 0-1.1-0.5-0.5-0.4-0.5-1.1 0-0.6 0.5-1.1 0.5-0.5 1.1-0.5 0.7 0 1.2 0.5 0.4 0.5 0.4 1.1 0 0.7-0.4 1.1-0.5 0.5-1.2 0.5zm11.6 5.6h-1.8v-14.4h1.8zm12.8 0h-8.9v-14.3h8.7v1.6h-6.9v11.1h7.1zm10.4-1.2l-0.5 1.4-7.8-2.6v-1.3l3.8-2.4q0.4-0.3 0.8-0.5 0.4-0.3 1-0.5v-0.1q-0.5-0.3-0.9-0.5-0.4-0.2-0.9-0.5l-3.8-2.4v-1.3l7.8-2.6 0.5 1.4-3.9 1.3q-0.5 0.2-1.1 0.4-0.6 0.1-1.1 0.2v0.1q0.5 0.3 1.1 0.6 0.6 0.4 1.1 0.7l3.4 2.1v1.1l-3.4 2.1q-0.5 0.3-1.1 0.7-0.6 0.3-1.1 0.5v0.1q0.7 0.2 1.2 0.3 0.5 0.2 1 0.4zm9.7-4.8l-6.1 6.2-1.3-1.1 4.2-4.2q0.3-0.3 0.6-0.6 0.4-0.3 0.8-0.6v-0.2q-0.5-0.3-0.9-0.6-0.3-0.3-0.7-0.5l-3.9-3.4v-1.3l7.8-2.3 0.4 1.6-3.6 0.9q-0.7 0.3-1.2 0.4-0.6 0.1-1.3 0.2v0.2q0.6 0.3 1.1 0.7 0.5 0.4 0.9 0.8l3.2 2.8zm7.9 6h-1.8v-6.8h-4.1v-1.6h4.1v-6h1.8v6h4.1v1.6h-4.1zm-89.4 24h-1.8v-6.8h-4.2v-1.6h4.2v-6h1.8v6h4.1v1.6h-4.1zm9.5 0.2q-1.7 0-2.8-1.1-1.1-1-1.1-2.8 0-1.8 1.1-2.8 1.1-1.1 2.8-1.1 1.6 0 2.7 1.1 1.1 1 1.1 2.8 0 1.8-1.1 2.8-1.1 1.1-2.7 1.1zm0-1.6q1 0 1.5-0.6 0.5-0.6 0.5-1.7 0-1-0.5-1.7-0.5-0.6-1.5-0.6-1.1 0-1.6 0.6-0.5 0.7-0.5 1.7 0 1.1 0.5 1.7 0.6 0.6 1.6 0.6zm15.6 1.4h-8.8v-14.4h8.6v1.6h-6.8v11.2h7zm5.9 0.2q-1.7 0-2.8-1-1.1-1-1.1-2.9 0-1.8 1.1-2.8 1.1-1 2.8-1 1.7 0 2.8 1 1.1 1 1.1 2.8 0 1.9-1.1 2.9-1.1 1-2.8 1zm0-1.6q1 0 1.5-0.6 0.6-0.6 0.6-1.7 0-1-0.6-1.6-0.5-0.7-1.5-0.7-1 0-1.6 0.7-0.5 0.6-0.5 1.6 0 1.1 0.6 1.7 0.5 0.6 1.5 0.6zm7.1 1.4h-1.8q0.3-2.5 1.8-4.1 1.6-1.5 3.9-1.8v-2.6q-2.3-0.3-3.9-1.9-1.5-1.5-1.8-4h1.8q0.3 1.8 1.2 2.9 1 1.1 2.7 1.3v-4.2h1.8v4.2q1.7-0.2 2.7-1.3 1-1.1 1.3-2.9h1.8q-0.4 2.5-1.9 4-1.5 1.6-3.9 1.9v2.6q2.4 0.3 3.9 1.9 1.5 1.5 1.9 4h-1.8q-0.3-1.8-1.3-2.9-1-1.1-2.7-1.4v4.3h-1.8v-4.3q-1.7 0.2-2.7 1.4-0.9 1.1-1.2 2.9zm21.9-1.3l-0.5 1.5-7.8-2.7v-1.3l3.8-2.4q0.4-0.3 0.8-0.5 0.5-0.2 1-0.5v-0.1q-0.5-0.2-0.9-0.5-0.4-0.2-0.9-0.5l-3.8-2.4v-1.3l7.8-2.6 0.5 1.4-3.9 1.4q-0.5 0.1-1.1 0.3-0.5 0.1-1.1 0.2v0.2q0.6 0.2 1.1 0.5 0.6 0.4 1.1 0.7l3.4 2.2v1l-3.4 2.1q-0.5 0.4-1.1 0.7-0.5 0.3-1.1 0.5v0.2q0.7 0.1 1.2 0.2 0.5 0.2 1 0.4zm8.8 1.2h-1.8v-6h-4.4v-8.3h1.8v6.8h7.1v-6.8h1.8v8.3h-4.5zm12.3 0h-1.8v-6.8h-4.1v-1.5h4.1v-6h1.8v6h4.1v1.5h-4.1z"/><path class="g" d="m360 319.2q-0.1 1.4-0.8 2.4-0.6 1-1.5 1.4-0.2 0.1-1.5 0.6-0.4 0.1-0.8 0-0.4-0.2-0.6-0.6-0.1-0.4 0.1-0.8 0.1-0.4 0.6-0.6 1.2-0.4 1.2-0.4 0.3-0.2 0.7-0.7 0.3-0.6 0.4-1.5 0.1-0.8-0.2-1.7-0.2-0.9-0.7-1.5-0.6-0.5-1.2-0.6-1.2-0.2-1.9 0.9-0.2 0.4-0.4 1-0.1 0.1-0.1 0.3v0.1q0 0.1-0.1 0.1 0 0 0 0.1 0 0 0 0.1-0.1 0.1-0.2 0.2-0.3 0.3-0.7 0.4-0.5 0-0.9-0.3-0.1-0.1-0.2-0.3l-0.3-0.4q-0.4-0.6-0.7-0.9-0.8-0.9-1.5-0.6-1.4 0.4-1.6 1.9-0.1 0.7 0.1 1.4 0.2 0.7 0.7 1.3 0.1 0.1 0.3 0.3 0 0.1 0.2 0.2 0.2 0.1 0.3 0.1 0 0 0.4 0.2 0.3 0.1 0.5 0.2 0.4 0.2 0.5 0.6 0.2 0.4 0 0.8-0.2 0.4-0.6 0.5-0.4 0.2-0.8 0-0.1 0-0.5-0.2-0.4-0.2-0.5-0.2-0.2-0.1-0.5-0.3-0.2-0.1-0.5-0.4-0.2-0.2-0.5-0.5-0.8-0.9-1.1-2-0.3-1.2-0.2-2.3 0.2-1.3 1-2.2 0.7-1 2.1-1.5 2.1-0.6 3.9 1.3l0.1-0.1q0.6-1 1.6-1.5 1-0.6 2.4-0.4 1.4 0.2 2.4 1.2 0.9 1 1.3 2.4 0.4 1.1 0.3 2.5z"/><path class="k" d="m109.5 259.3c-2.9 0-4.5 1.6-4.5 4.5 0 2.8 1.6 4.5 4.5 4.5 2.8 0 4.5-1.7 4.5-4.5 0-2.9-1.6-4.5-4.5-4.5zm0 6.3c-1 0-1.7-0.8-1.7-1.9 0-1.6 0.3-1.9 1.7-1.9 1.1 0 1.7 0.8 1.7 1.9 0 1.6-0.3 1.9-1.7 1.9zm6.8-2.1v-7.9l-0.9-2.3h11.4l-1 3.1h-5.5v5.2c0 2.3 0 3.4 1.7 3.3h4.8l-1 3.1h-5.9c-2.5 0-3.6-0.9-3.6-4.5zm17.1-4.2c-2.8 0-4.5 1.6-4.5 4.5 0 2.8 1.7 4.5 4.5 4.5 2.8 0 4.5-1.7 4.5-4.5 0-2.9-1.6-4.5-4.5-4.5zm0.1 6.3c-1.1 0-1.8-0.8-1.8-1.9 0-1.6 0.4-1.9 1.8-1.9 1 0 1.6 0.8 1.6 1.9 0 1.6-0.2 1.9-1.6 1.9zm20.2-12.3h-4v11.6h-5.5v-11.6h-4.8l0.8 2.3v12.4h11.2c1.2 0 2.3-1.3 2.3-2.9zm6.9 5.9c-2.9 0-4.6 1.7-4.6 4.5 0 2.9 1.7 4.6 4.6 4.6 2.8 0 4.5-1.7 4.5-4.6 0-2.8-1.7-4.5-4.5-4.5zm0 6.3c-1 0-1.8-0.7-1.8-1.8 0-1.6 0.4-1.9 1.8-1.9 1 0 1.7 0.7 1.7 1.9 0 1.6-0.3 1.8-1.7 1.8zm16.8-12.2h-3.8v2.7l-2.4 4.4v-7.1h-4.7l0.9 2.3v12.4h3.8v-2.8l2.4-4.3v7.1h3.8zm11.9 5.9c-2.8 0-4.5 1.7-4.5 4.5 0 2.9 1.7 4.6 4.5 4.6 2.8 0 4.5-1.7 4.5-4.6 0-2.8-1.6-4.5-4.5-4.5zm0.1 6.3c-1.1 0-1.8-0.7-1.8-1.8 0-1.6 0.4-1.9 1.8-1.9 1 0 1.6 0.7 1.6 1.9 0 1.6-0.2 1.8-1.6 1.8zm10.7-12.2v14.7h-4v-12.4l-0.8-2.3zm2.9 10.2v-7.9l-0.8-2.3h11.4l-1.1 3.1h-5.5v5.2c0 2.2 0.1 3.3 1.7 3.3l4.9-0.1-1.1 3.2h-5.8c-2.6 0-3.7-0.9-3.7-4.5zm23.3-10.2h-3.9v2.7l-2.3 4.4v-7.1h-4.7l0.8 2.3v12.4h3.9v-2.8l2.3-4.3v7.1h3.9zm6.9 5.9c-2.9 0-4.5 1.7-4.5 4.5 0 2.9 1.6 4.6 4.5 4.6 2.8 0 4.5-1.7 4.5-4.6 0-2.8-1.6-4.5-4.5-4.5zm0 6.3c-1 0-1.7-0.7-1.7-1.8 0-1.6 0.3-1.9 1.7-1.9 1.1 0 1.7 0.7 1.7 1.9 0 1.6-0.3 1.8-1.7 1.8zm10.8-12.2v14.7h-4v-12.4l-0.9-2.3z"/><path class="c" d="m194.9 205.9q-0.6-0.2-1.2-0.5-0.7-0.3-1.3-0.7-0.5-0.4-1-0.8-0.4-0.4-0.6-0.8-0.2-0.4 0-0.8 0.2-0.4 0.9-0.7 0.1 0 0.1-0.1 0.1 0 0.2 0 0.4-0.2 1.4-0.6 0.9-0.3 2.1-0.8 1.1-0.4 2.4-0.9 1.3-0.5 2.5-0.9 1.2-0.4 2.2-0.6 1-0.3 1.5-0.4 0.5-0.1 1.1-0.1 0.7 0 1.2 0.1 0.5 0.1 0.8 0.4 0.4 0.3 0.4 0.8 0 0.5-0.2 0.9-0.2 0.4-0.5 0.7-0.3 0.3-0.6 0.4-0.4 0.2-0.8 0.3-0.9 0.3-2.1 0.3l-8.7 0.4q0.4 0.1 0.7 0.3 0.4 0.2 0.7 0.4 0.3 0.3 0.9 0.8 0.6 0.4 1.3 1 0.7 0.6 1.5 1.3 0.8 0.7 1.5 1.4 1.8 1.5 3.8 3.3-2.3-0.9-4.3-1.7-0.9-0.4-1.8-0.8-0.8-0.3-1.6-0.6-0.8-0.3-1.5-0.6-0.6-0.3-1-0.4zm-0.2 12.7l8.7 0.4q1.2-0.1 2.1 0.2 0.4 0.1 0.8 0.3 0.3 0.2 0.6 0.4 0.3 0.3 0.5 0.7 0.2 0.4 0.2 1 0 0.5-0.4 0.8-0.3 0.2-0.8 0.3-0.5 0.1-1.2 0.1-0.6 0-1.1-0.1-0.5 0-1.5-0.3-1-0.3-2.2-0.7-1.2-0.4-2.5-0.9-1.3-0.4-2.4-0.9-1.2-0.4-2.1-0.8-1-0.3-1.4-0.5-0.1-0.1-0.2-0.1 0 0-0.1-0.1-0.7-0.3-0.9-0.6-0.2-0.4 0-0.8 0.2-0.4 0.6-0.8 0.5-0.4 1-0.8 0.6-0.4 1.3-0.7 0.6-0.3 1.2-0.5 0.4-0.2 1-0.4 0.7-0.3 1.5-0.6 0.8-0.3 1.6-0.7 0.9-0.3 1.8-0.7 2-0.8 4.3-1.7-2 1.8-3.8 3.3-0.7 0.7-1.5 1.3-0.8 0.7-1.5 1.3-0.7 0.6-1.3 1.1-0.6 0.4-0.9 0.7-0.3 0.2-0.7 0.4-0.3 0.2-0.7 0.4zm35.2-10.4v0.3 0.2q-0.1 0.9-0.6 1.4-0.5 0.5-1 0.7-0.7 0.2-1.5 0.2h-7.8q0.1 0.1 0.3 0.6 0.2 0.5 0.5 1.2 0.3 0.6 0.7 1.5 0.4 0.8 0.8 1.7 0.3 0.9 0.7 1.7 0.3 0.9 0.6 1.7 0.3 0.7 0.4 1.3 0.2 0.6 0.2 0.9 0 0.3-0.1 0.5-0.1 0.3-0.3 0.5-0.3 0.1-0.7 0.2-0.4 0.1-1 0.1-0.9-0.1-1.3-0.4-0.5-0.3-0.6-0.6-0.2-0.5-0.2-1v-9.9h-6.6q-0.4 0-0.8-0.2-0.3-0.1-0.5-0.3-0.2-0.2-0.4-0.5-0.1-0.3-0.2-0.6-0.2-0.7-0.2-1.6v-10.5q1.2 2.6 2.1 4.9 0.4 1 0.8 2 0.4 1 0.7 1.8 0.3 0.8 0.4 1.5 0.2 0.6 0.2 0.9 0 0.2 0 0.5-0.1 0.3-0.2 0.6-0.1 0.3-0.2 0.6-0.2 0.2-0.4 0.4 0.8-0.3 2.1-0.7 1.2-0.5 2.6-0.9 1.4-0.5 2.8-1 1.5-0.5 2.8-0.8 1.3-0.4 2.3-0.6 1-0.2 1.5-0.2 0.3 0 0.5 0 0.2 0 0.4 0.1-0.3-0.7-0.7-1.4-0.3-0.8-0.7-1.6-0.3-0.7-0.6-1.5-0.3-0.7-0.6-1.4-0.2-0.6-0.3-1.1-0.2-0.5-0.1-0.8 0-0.3 0-0.6 0.1-0.2 0.4-0.4 0.2-0.2 0.6-0.2 0.4-0.1 1.1-0.1 0.8 0 1.3 0.3 0.4 0.3 0.6 0.7 0.2 0.4 0.2 1zm15.6 3.4q1.9 0 3.5 0.5 1.6 0.5 2.9 1.3 1.2 0.8 2.1 1.8 1 0.9 1.7 2 1.5 2.3 2.3 5.2-0.9-1.1-1.9-2.1-1-0.9-2.2-1.6-1.1-0.7-2.4-1.1-1.2-0.5-2.4-0.8-1.2-0.3-2.3-0.4-1.2-0.1-2.1-0.1-0.3 1.3-0.5 2.4-0.2 1.2-0.3 2-0.2 1-0.3 1.8v-6.1q-1.2 0.1-2.1 0.6-0.9 0.4-1.6 0.9-0.6 0.5-1.1 1-0.4 0.5-0.6 0.7-0.2 0.3-0.5 0.8-0.3 0.6-0.7 1.1-0.5 0.5-1.1 0.8-0.7 0.3-1.7 0.1-0.6-0.1-0.9-0.3-0.4-0.3-0.5-0.7-0.2-0.3-0.2-0.8 0-0.4 0.1-0.9 0.3-1 1-2.2 1.3-1.7 2.7-2.8 1.4-1.1 2.7-1.8 1.3-0.6 2.5-0.9 1.1-0.3 2-0.4v-3.6q-0.9 0-2-0.3-1.2-0.3-2.5-1-1.3-0.6-2.7-1.7-1.4-1.2-2.7-2.9-0.7-1.2-1-2.2-0.1-0.4-0.1-0.9 0-0.4 0.2-0.8 0.1-0.4 0.5-0.6 0.3-0.3 0.9-0.4 1-0.2 1.7 0.1 0.6 0.3 1.1 0.8 0.4 0.6 0.7 1.1 0.3 0.5 0.5 0.8 0.2 0.3 0.6 0.8 0.5 0.4 1.1 0.9 0.7 0.6 1.6 1 0.9 0.4 2.1 0.6v-2.1q-0.1-1.1 0.1-2 0.1-0.4 0.2-0.7 0.1-0.4 0.3-0.7 0.2-0.2 0.5-0.4 0.3-0.2 0.6-0.2 0.5-0.1 0.9 0.1 0.3 0.2 0.5 0.5 0.2 0.3 0.3 0.9 0 0.5 0 1.1 0 0.5 0 1.4-0.1 0.8-0.3 2 1.4-0.1 3-0.5 1.5-0.4 3-1.1 1.5-0.8 2.9-1.8 1.3-1.1 2.4-2.6-0.7 2.8-2.2 5.2-0.7 0.9-1.6 1.9-0.9 1-2.1 1.8-1.1 0.7-2.7 1.3-1.5 0.5-3.4 0.7-0.1 0.8-0.2 1.7-0.2 0.9-0.3 1.8zm19.9-10.7q0 1.7-0.2 3.6-0.1 1.9-0.5 3.7-0.3 1.9-0.7 3.7-0.4 1.8-0.9 3.4-1.1 3.8-2.5 7.5v-22.5q0.2-0.8 0.5-1.5 0.3-0.6 0.7-1.1 0.5-0.5 1.2-0.5 0.5-0.1 0.9 0.2 0.5 0.3 0.8 0.8 0.3 0.5 0.5 1.2 0.2 0.7 0.2 1.5zm14.4-3.7q0.7 0 1.2 0.5 0.4 0.5 0.7 1.1 0.3 0.7 0.4 1.5v19.9q0 0.9-0.4 1.4-0.3 0.5-0.8 0.8-0.5 0.3-1.1 0.4h-19.2q3.5-1.6 6.8-2.8 1.4-0.5 3-1 1.6-0.5 3.1-0.9 1.6-0.3 3.1-0.5 1.4-0.3 2.7-0.2 0.6 0 1 0.2 0.5 0.1 0.9 0.4-0.4-0.8-0.8-2-0.5-1.1-0.9-2.5-0.4-1.3-0.8-2.8-0.4-1.6-0.7-3.2-0.3-1.6-0.5-3.3-0.2-1.6-0.1-3.3 0-0.8 0.2-1.5 0.1-0.7 0.5-1.2 0.3-0.5 0.7-0.8 0.5-0.3 1-0.2zm30.4 10.2q0.2 0.9 0.3 1.8 0 0.8 0 1.8-0.1 1.1-0.4 2.3-0.3 1.1-0.7 2.2-0.5 1.1-1.2 2.2-0.7 1-1.7 2-1 0.9-2.3 1.6-1.3 0.7-2.9 1.2-1.5 0.4-3.5 0.4-1.1 0-2.5-0.2-1.5-0.3-2.9-0.9-1.5-0.7-2.8-1.7-1.4-0.9-2.5-2.4-1-1.4-1.7-3.3-0.6-1.9-0.6-4.4 0-1.1 0.3-2.5 0.3-1.3 0.9-2.7 0.7-1.4 1.7-2.8 1-1.3 2.4-2.3 1.4-1.1 3.3-1.7 1.8-0.6 4.2-0.6 1.9-0.1 3.8 0.5 0.8 0.2 1.8 0.7 0.9 0.4 1.9 1.1 0.9 0.8 1.9 1.7 1 1 1.9 2.4 0.3 0.6 0.6 1.2 0.3 0.6 0.5 1.3 0.2 0.6 0.2 1.3 0 0 0-0.1 0 0 0-0.1zm-21.2 3.9q0 1.6 0.8 3 0.8 1.4 2.1 2.4 1.4 1.1 3.1 1.7 1.7 0.7 3.6 0.8 1.9 0 3.7-0.5 1.9-0.5 3.4-1.8 1.6-1.2 2.8-3.3 1.1-2.1 1.6-5.1-0.2 0.5-0.6 0.9-0.4 0.4-1.2 0.6-0.6 0.2-1.1 0-0.4-0.1-0.8-0.5-0.4-0.3-0.7-0.7-0.3-0.5-0.5-0.9-0.3-0.5-0.4-0.9-0.2-0.4-0.3-0.6-0.2-0.6-0.7-1.3-0.6-0.7-1.4-1.4-0.8-0.6-2-1-1.1-0.4-2.5-0.4-2.5 0.3-4.4 1.3-0.9 0.4-1.7 1.1-0.8 0.6-1.4 1.6-0.6 0.9-1 2.2-0.4 1.2-0.4 2.8z"/><path class="g" d="m200 179.4c-2-0.1-3.2 1-3.3 3-0.1 1.9 1 3.2 3 3.3 1.9 0 3.2-1.1 3.2-3 0.1-2-1-3.2-2.9-3.3zm-0.2 4.4c-0.7-0.1-1.2-0.6-1.2-1.4 0.1-1.1 0.3-1.3 1.3-1.2 0.7 0 1.1 0.6 1.1 1.3 0 1.1-0.3 1.3-1.2 1.3zm9.9-8.3c-3.3-0.2-5.4 1.7-5.5 5-0.2 3.4 1.7 5.4 5.1 5.6 3.3 0.1 5.4-1.8 5.5-5.1 0.1-3.3-1.7-5.4-5.1-5.5zm2.6 5.7c0 1.5-0.9 2.7-2.6 2.6-1.8-0.1-3.1-1.5-3-3.4 0.1-1.7 1-2.8 2.7-2.7 1.8 0.1 3 1.7 2.9 3.5zm-1.7-0.3c0 0.6-0.4 1.1-1 1-0.7 0-1.2-0.5-1.1-1.3 0-0.6 0.3-1.1 1-1 0.7 0 1.1 0.6 1.1 1.3zm8.8-4.8l-0.4 10.2-2.8-0.1 0.4-8.6-0.5-1.6zm1.7 7.1l0.2-5.4-0.5-1.7 7.9 0.4-0.8 2.1-3.8-0.1-0.2 3.5c-0.1 1.6-0.1 2.4 1.1 2.4l3.3 0.1-0.8 2.1-4-0.1c-1.8-0.1-2.5-0.7-2.4-3.3zm12-2.4c-2-0.1-3.2 1-3.3 3-0.1 2 1 3.2 3 3.3 2 0.1 3.2-1.1 3.3-3 0.1-2-1-3.2-3-3.3zm-0.2 4.4c-0.7 0-1.2-0.6-1.1-1.3 0-1.1 0.3-1.4 1.2-1.3 0.7 0 1.2 0.6 1.1 1.4 0 1.1-0.2 1.2-1.2 1.2zm10-8.3c-3.4-0.1-5.4 1.7-5.6 5-0.1 3.4 1.8 5.5 5.1 5.6 3.3 0.2 5.4-1.7 5.5-5.1 0.2-3.3-1.7-5.3-5-5.5zm2.6 5.7c-0.1 1.6-1 2.7-2.7 2.6-1.8 0-3-1.5-3-3.4 0.1-1.6 1-2.7 2.7-2.7 1.8 0.1 3.1 1.7 3 3.5zm9.2-5.2c-3.4-0.1-5.4 1.7-5.6 5.1-0.1 3.3 1.7 5.4 5.1 5.5 3.3 0.2 5.4-1.7 5.5-5.1 0.2-3.3-1.7-5.3-5-5.5zm2.6 5.8c-0.1 1.5-1 2.6-2.7 2.6-1.8-0.1-3.1-1.5-3-3.5 0.1-1.6 1-2.7 2.7-2.6 1.8 0 3 1.7 3 3.5zm6.8-1c-2-0.1-3.2 1-3.3 3-0.1 1.9 1.1 3.2 3 3.3 2 0 3.2-1.1 3.3-3 0.1-2-1-3.2-3-3.3zm-0.2 4.4c-0.7-0.1-1.2-0.6-1.1-1.4 0-1.1 0.3-1.3 1.3-1.2 0.7 0 1.1 0.6 1.1 1.3-0.1 1.1-0.3 1.3-1.3 1.3z"/><path class="c" d="m160.9 151.1l1.1 1.5 3 0.3 1.4-1.1 0.5-3.8-1.2-1.5-2.9-0.3-1.4 1.1zm1.3 0.2l0.4-3.9 2.9 0.4-0.4 3.8zm5.8 0.7l1.2 1.5 3.8 0.4 1.5-1.1 1.1-9-1.2-1.4-3.8-0.5-1.5 1.1zm1.3 0.2l1.1-9 3.9 0.5-1.1 9zm1.9-5l-0.2 1.3 1.3 0.1 0.2-1.3zm11.7-1.8l-1 8.4-0.7-0.1-0.1 1.3 2.5 0.3 0.2-1.3-0.6-0.1 1.1-9 0.6 0.1 0.2-1.3-2-0.2-4.3 4.4h-0.1l0.4-3.6 0.6 0.1 0.2-1.3-2.6-0.3-0.1 1.3 0.6 0.1-1.1 8.9h-0.6l-0.2 1.2 2.6 0.4 0.2-1.3-0.7-0.1 0.4-3.5 4.4-4.4zm10.3-0.7l-6.5-0.8-0.3 2.6 2 4.4-2.6 3.3-0.7-0.1-0.1 1.3 2.7 0.4 0.2-1.3-0.7-0.1 1.7-2.3h0.2l1.1 2.7-0.7-0.1-0.1 1.3 2.7 0.3 0.2-1.3-0.7-0.1-1.7-3.8 3-3.8zm-5.5 1.7l0.2-1.1 3.8 0.5-0.1 1-2.3 3.1h-0.1zm7.8 9l1.1-9 0.6 0.1 0.2-1.3-2.6-0.3-0.1 1.3 0.6 0.1-1.1 8.9h-0.6l-0.2 1.3 2.6 0.3 0.1-1.3zm8.4 1l1.1-9 0.6 0.1 0.2-1.3-2.6-0.3-0.1 1.3 0.6 0.1-1.1 8.9h-0.6l-0.2 1.3 2.6 0.3 0.1-1.3zm8.3 1l-0.1 1.3 2.5 0.3 0.2-1.3-0.7-0.1 0.5-3.8 1.6 0.2-0.1 0.6 1.3 0.2 0.3-2.6-1.3-0.2-0.1 0.7-1.5-0.2 0.4-3.9 0.7 0.1 0.1-1.3-2.5-0.3-0.2 1.3 0.7 0.1-0.5 3.8-1.5-0.2v-0.6l-1.3-0.2-0.3 2.6 1.3 0.2 0.1-0.7 1.5 0.2-0.4 3.9zm8.6 1l-0.1 1.3 2.5 0.3 0.2-1.3h-0.6l0.3-2.6 3.2 0.4 0.1-1.3-0.6-0.1 0.6-5.1 0.7 0.1 0.1-1.3-2.6-0.3-0.1 1.2 0.6 0.1-0.6 5.2-3.9-0.5 0.7-5.1h0.6l0.2-1.3-2.6-0.3-0.2 1.3 0.7 0.1-0.6 5.1h-0.7l-0.2 1.2 3.3 0.4-0.3 2.6zm13.6-6.9l-1 8.4h-0.7l-0.1 1.2 2.5 0.4 0.2-1.3-0.7-0.1 1.1-9 0.7 0.1 0.1-1.3-1.9-0.2-4.3 4.3h-0.1l0.4-3.5 0.6 0.1 0.2-1.3-2.6-0.3-0.1 1.2 0.6 0.1-1.1 9-0.6-0.1-0.2 1.3 2.6 0.3 0.1-1.3h-0.6l0.4-3.6 4.4-4.4zm2.5 8.9l1.2 1.4 2.9 0.4 1.4-1.2 0.5-3.8-1.1-1.5-2.9-0.3-1.5 1.1zm1.3 0.2l0.5-3.9 2.9 0.4-0.5 3.8zm7.8 1l1.1-9 0.6 0.1 0.2-1.3-2.6-0.3-0.1 1.3h0.6l-1.1 9-0.6-0.1-0.2 1.3 2.6 0.3 0.1-1.2zm4.2 0.5l-0.2 1.3 2.6 0.3 0.2-1.3-0.7-0.1 0.5-3.9 1.5 0.2-0.1 0.7 1.3 0.1 0.3-2.5-1.2-0.2-0.1 0.6-1.6-0.1 0.5-3.9 0.6 0.1 0.2-1.3-2.6-0.3-0.1 1.3 0.6 0.1-0.4 3.8-1.6-0.2 0.1-0.6-1.3-0.2-0.3 2.6 1.3 0.2 0.1-0.7 1.5 0.2-0.5 3.8zm12.1 1.5l-0.2 1.3 2.6 0.3 0.2-1.3-0.7-0.1 0.5-3.8 1.5 0.2-0.1 0.6 1.3 0.2 0.3-2.6-1.2-0.1-0.1 0.6-1.6-0.2 0.5-3.8h0.6l0.2-1.3-2.6-0.3-0.1 1.3 0.6 0.1-0.4 3.9-1.6-0.2 0.1-0.7-1.3-0.1-0.3 2.5 1.3 0.2 0.1-0.6 1.5 0.1-0.5 3.9zm6.1 0.7l1.1 1.5 2.9 0.3 1.5-1.1 0.4-3.8-1.1-1.5-2.9-0.3-1.4 1.1zm1.3 0.1l0.4-3.8 2.9 0.4-0.4 3.8zm5.7 2l6.1 0.8 0.2-2-1.3-0.1v0.6l-3-0.3 1.1-9 2.9 0.3v0.7l1.3 0.1 0.2-1.9-6.1-0.8-0.2 1.3 0.7 0.1-1.1 9-0.7-0.1zm10.5 0l-0.1 1.3 2.5 0.3 0.2-1.3-0.6-0.1 0.3-2.5 3.2 0.4 0.2-1.3-0.7-0.1 0.6-5.1h0.7l0.1-1.3-2.5-0.3-0.2 1.3 0.6 0.1-0.6 5.1-3.8-0.4 0.6-5.2 0.6 0.1 0.2-1.3-2.6-0.3-0.2 1.3 0.7 0.1-0.6 5.1-0.7-0.1-0.1 1.3 3.2 0.4-0.3 2.6zm6.8 0.8l1.1 1.4 3.9 0.5 1.4-1.1 1.1-9-1.1-1.5-3.9-0.4-1.4 1.1zm1.3 0.2l1.1-9 3.8 0.5-1.1 8.9zm6.8 0.9l1.2 1.4 2.9 0.4 1.4-1.2 0.5-3.8-1.1-1.4-3-0.4-1.4 1.1zm1.3 0.2l0.5-3.9 2.9 0.4-0.5 3.8zm5.8 0.8l1.2 1.4 3.8 0.5 1.5-1.2 1.1-8.9-1.2-1.5-3.8-0.5-1.5 1.2zm2-5l0.4-3.9 3.9 0.5-0.5 3.9zm-0.6 5.1l0.5-3.8 3.8 0.4-0.4 3.9zm6.6 2.1l5.5 0.7 0.2-2-1.3-0.1v0.6l-3-0.3 0.2-0.9 2.9-3.3-2.1-3.9 0.1-0.9 3 0.3-0.1 0.7 1.3 0.1 0.2-1.9-5.5-0.7-0.3 2.6 1.9 3.5-2.7 2.9zm9.2-0.2l-0.2 1.3 2.6 0.3 0.1-1.3h-0.6l0.5-3.9 1.5 0.2-0.1 0.6 1.3 0.2 0.3-2.6-1.3-0.1v0.6l-1.6-0.2 0.5-3.8 0.6 0.1 0.2-1.3-2.6-0.3-0.1 1.2 0.6 0.1-0.5 3.9-1.5-0.2 0.1-0.7-1.3-0.1-0.3 2.6 1.3 0.1v-0.6l1.6 0.2-0.5 3.8z"/><path class="t" d="m183.8 116.8q0.4-0.5 0.8-0.7 0.4-0.3 0.7-0.5 0.4-0.2 0.7-0.2 0.3 0 0.5-0.1 0.4 0 0.7 0.1 0.3 0.2 0.6 0.3 0.3 0.2 0.6 0.4 0.2 0.2 0.4 0.4 1.3 1.7 1 4.7-0.4 2.4-1.4 3.6-1 1.2-2 1.2-0.8 0-1.5-0.2-0.9-0.4-1.5-1.3-0.6-0.9-0.7-2.1-0.5-3.2 1.1-5.6zm2.7 3q-0.4-0.2-1 0.9-0.7 1.1-0.4 3 0.1 0.9 0.6 0.8 0.2 0 0.5-0.2 1-1.1 0.9-3.1-0.1-1.1-0.6-1.4zm3.3 4.3l-0.9-13.5q0.4-0.2 0.8-0.5 0.4-0.2 0.8-0.4 1-0.5 2-0.9 1-0.4 2-0.7 1.5-0.4 2.2-0.4h0.2q0.7-0.1 0.9 1.1 0.1 0.3 0.2 0.9 0 0.6 0 1.4 0.1 0.4 0.1 0.6 0 0.3 0 0.5-0.1 0.6-0.2 0.8-0.2 0.4-0.7 0.5l-1.9 0.4q-0.5 0.1-1 0.3-0.5 0.1-1.1 0.3-0.2 1.4-0.4 2.5-0.1 1.1-0.2 1.9-0.5 3.7-0.6 4.1 0 0.4-0.1 0.7 1.2-0.3 2.1-0.4 0.5 0 0.7 0.6 0.2 0.4 0.2 0.8 0 0.3-0.3 0.4-0.5 0.1-0.9 0.2-0.4 0.1-0.7 0.2-0.9 0.2-1.3 0.2-0.1 0.1-0.4 0-0.5-0.2-0.9-0.6-0.5-0.4-0.6-1zm6-7.7q0.4-0.5 0.8-0.8 0.4-0.3 0.7-0.5 0.4-0.1 0.7-0.2 0.3 0 0.5 0 0.4 0 0.7 0.1 0.3 0.1 0.6 0.3 0.3 0.1 0.6 0.3 0.2 0.3 0.4 0.4 1.3 1.7 1 4.8-0.4 2.3-1.4 3.5-1 1.2-2 1.2-0.8 0.1-1.5-0.2-0.9-0.4-1.5-1.2-0.6-0.9-0.7-2.1-0.5-3.2 1.1-5.6zm2.7 2.9q-0.4-0.2-1 0.9-0.7 1.1-0.4 3 0.1 0.9 0.6 0.9 0.2 0 0.5-0.3 1-1.1 0.9-3.1-0.1-1-0.6-1.4zm6.5-10q0.8 0.7 1.1 1.4 0.1 0.3 0.2 0.6 0 0.4-0.2 1-0.8 4.1-1.4 7.3l-0.9 5.5q-0.1 0.2-0.2 0.2-0.1 0-0.3 0-0.7-0.2-0.9-0.3-0.5-0.2-0.5-0.7v-0.3q0-0.5 0-1.5 0-2 0-4.7 0.1-4.9 0.3-8.5 0.1-1.4 0.7-1.4 0.2 0 0.6 0.2 0.7 0.4 1.5 1.2zm1.5 6.6q0.3-0.4 0.7-0.7 0.4-0.3 0.8-0.5 0.3-0.1 0.6-0.2 0.3 0 0.5 0 0.4-0.1 0.7 0.1 0.3 0.1 0.6 0.2 0.3 0.2 0.6 0.4 0.2 0.2 0.4 0.4 1.4 1.7 1 4.7-0.3 2.4-1.4 3.6-1 1.2-2 1.2-0.8 0-1.5-0.2-0.9-0.4-1.5-1.2-0.6-0.9-0.7-2.2-0.5-3.2 1.2-5.6zm2.6 3q-0.4-0.2-1 0.9-0.6 1.1-0.4 3 0.1 0.9 0.7 0.9 0.2-0.1 0.4-0.3 1-1.1 0.9-3.1-0.1-1-0.6-1.4zm9.3-10.8q1.6 1.1 2.1 3.1 0.2 0.7 0.2 1.6 0.1 1.7-0.2 3.4-0.5 3.5-1.7 6.1-0.7 1.4-1.3 2-0.5 0.5-1.4 0.5-2.1 0.1-3-1.3-1.2-2-1.4-5.7-0.1-2 0.3-4.2 0.4-2.7 1.3-4.4 1.1-2.1 2.7-2.1 0.3 0 0.5 0 1 0.3 1.9 1zm-1 5.3q-0.1-0.7-0.5-0.7-0.6 0-1.3 2.2-0.7 2.2-0.9 4.1-0.1 1.1-0.1 2.1 0.1 1.1 0.3 1.7 0.2 0.7 0.6 0.6 0.4 0 1-1.3 0.5-1.3 0.8-3.3 0.4-2.1 0.3-4.1 0-0.8-0.2-1.3zm13.3-5.1q0.7 0.7 1 1.4 0.2 0.3 0.2 0.6 0 0.4-0.1 1-0.9 4.1-1.5 7.3l-0.9 5.5q0 0.2-0.2 0.2-0.1 0-0.3 0-0.7-0.2-0.9-0.3-0.4-0.2-0.5-0.7v-0.3q0-0.5 0-1.5 0-2 0-4.7 0.1-4.9 0.3-8.5 0.1-1.4 0.7-1.4 0.2 0 0.6 0.2 0.7 0.4 1.6 1.2zm13.3 12.5q-0.1 1-1 2.1-0.9 1-1.9 1-1.5 0.1-2.2-1.5-0.8-1.6-0.1-3.1 0.2-0.4 0.4-0.6 0.2-0.3 0.5-0.4 0.3-0.2 0.5-0.3 0.3-0.2 0.5-0.2 0.3-0.1 0.5-0.1 0.1-0.1 0.3-0.1 0.3 0 0.5 0.1 0.3 0 0.5 0.1 0.2 0.1 0.4 0.2 0.1 0.1 0.3 0.2 1 0.8 0.8 2.6zm-2 0q0-1.3-0.7-1.3-0.2 0-0.4 0.2-0.4 0.3-0.4 1.4-0.1 1 0.5 1.3 0 0 0 0 0.1 0 0.1 0 0.1 0 0.2-0.1 0.2-0.1 0.3-0.3 0.1-0.2 0.2-0.5 0.1-0.3 0.2-0.7zm3.2-14.1q1.3 1.1 1.8 2.3 0.4 1.2 0.3 2.2 0 1.9-1.5 3.6-1.4 1.8-3 2.2-1.6 0.3-2.8-0.7-1.6-1.2-1.8-4-0.1-1.4 0.2-3.1 0.5-1.6 1.4-2.6 1-1.2 2.8-1 1.7 0.3 2.6 1.1zm-0.8 6.1q-0.1-0.3-0.2-0.5-0.1-0.3-0.3-0.4-0.2-0.2-0.4-0.2-0.1-0.1-0.3-0.1-0.3 0-0.5 0.1-0.3 0.2-0.5 0.3-0.2 0.2-0.4 0.4-0.1 0.2-0.3 0.3-0.6 0.9-0.2 1.4 0.2 0.3 0.5 0.4 0.4 0.2 0.9 0.2 0.4-0.1 0.7-0.3 0.3-0.2 0.5-0.5 0.3-0.2 0.4-0.5 0.1-0.3 0.1-0.6zm9.6-6.1q1.9 1.1 2.5 3 0.2 0.8 0.3 1.7 0.1 1.7-0.2 3.4-0.5 3.5-2.1 6.1-0.6 1.1-1.6 1.8-1 0.8-2.3 0.8-1.6 0-2.8-1.4-1.5-1.9-1.7-5.7-0.1-1.9 0.3-4.2 0.5-2.7 1.5-4.4 1.3-2 3.2-2.1 0.3 0 0.6 0.1 1.2 0.2 2.3 0.9zm-0.6 6.6q-0.3-2-1.3-2-1 0.1-1.9 2.3-0.8 2.3-0.9 3.7-0.2 1.4-0.1 2.4 0.1 1.1 0.4 1.7 0.4 0.7 0.9 0.7 0.7-0.1 1.5-1.4 0.8-1.3 1.3-3.3 0.4-2.2 0.1-4.1zm-3.6 4.5q0-0.4 0.1-0.7 0.4-1.1 1.3-1 0.6 0 1 0.4 0.3 0.4 0.3 0.9 0.1 0.6 0 0.9-0.2 0.6-0.5 0.9-0.4 0.4-1 0.4-0.2 0-0.5-0.1-0.8-0.5-0.7-1.7zm10.3-0.8q0 0.3 0 0.5 0.9-3 1.6-5.2l1.6-4.8q0.2-0.9 0.5-1.4 0.5-1.2 1.2-1.3 0.3 0 0.9 0.4 0.7 0.5 1.3 1.1 1.3 1.1 1.3 1.9 0 0.5-0.4 1.7-2.1 5.2-2.9 7.5l-0.8 2.2q-0.8 2.2-1.1 3.1-0.1 0.3-0.3 0.3-0.5 0-0.9-0.2-0.5-0.2-0.5-0.5 0-0.4 0.4-2.5 0.6-2.3 1.1-4.5-1.5 3.4-2.8 6.9-0.4 0.9-0.7 0.9-0.2 0.1-0.8-0.1-0.8-0.3-0.9-1.2v-0.3q-0.1-0.3-0.1-0.9-0.3-3.1-0.5-4.7l-0.4-4.2q-0.3-2.2-0.5-4.5-0.1-1.5 0.4-1.5 0.5 0 0.8 0.1 1.1 0.3 2 0.9 1.1 0.9 1.1 2.1 0 0.9 0 1.4-0.2 1.5-0.3 3.3zm6.5 4.1l-1-13.6q0.4-0.2 0.8-0.4 0.4-0.2 0.8-0.4 1-0.5 2-0.9 1-0.4 2.1-0.7 1.4-0.4 2.2-0.5h0.1q0.7 0 1 1.2 0 0.3 0.1 0.9 0 0.6 0.1 1.4 0 0.3 0 0.6 0 0.3 0 0.5-0.1 0.6-0.2 0.8-0.2 0.3-0.7 0.4l-1.9 0.5q-0.5 0.1-1 0.2-0.5 0.2-1.1 0.3-0.2 1.5-0.4 2.6-0.1 1.1-0.2 1.8-0.5 3.8-0.6 4.2 0 0.4 0 0.7 1.1-0.4 2.1-0.4 0.4 0 0.6 0.5 0.2 0.4 0.3 0.9 0 0.2-0.4 0.3-0.5 0.2-0.9 0.3-0.4 0.1-0.6 0.1-1 0.3-1.4 0.3-0.1 0-0.3-0.1-0.6-0.1-1-0.5-0.5-0.5-0.5-1zm5.9-7.8q0.4-0.5 0.8-0.7 0.4-0.3 0.7-0.5 0.4-0.2 0.7-0.2 0.3-0.1 0.5-0.1 0.4 0 0.7 0.1 0.3 0.1 0.6 0.3 0.3 0.2 0.6 0.4 0.2 0.2 0.4 0.4 1.4 1.7 1 4.7-0.4 2.4-1.4 3.6-1 1.2-2 1.2-0.8 0-1.5-0.3-0.9-0.3-1.5-1.2-0.6-0.9-0.7-2.1-0.5-3.2 1.1-5.6zm2.7 3q-0.4-0.2-1 0.9-0.6 1.1-0.4 3 0.1 0.9 0.6 0.8 0.3 0 0.5-0.2 1-1.2 0.9-3.1-0.1-1.1-0.6-1.4zm5.3 1.5q-1 3.5-1.1 3.9-0.2 0.6-0.4 0.6-0.1 0-0.3 0-0.6-0.2-0.7-0.3-0.4-0.3-0.4-0.7 0-0.6 0.5-3.8 0.4-2.4 0.9-5.3 0.6-3.1 1.2-5.9 0.5-2.2 1.7-2.2 0.2 0 0.3 0 1.1 0.1 2 0.4 0.8 0.3 2 1 0.5 0.4 0.6 1.2 0 0.5-0.2 1.4-0.3 1.9-0.7 3.8-0.8 5.4-1.4 9.9 0 0.3-0.4 0.3-0.6 0.1-0.9 0-0.4-0.1-0.5-0.8 0-1 0-2 0-1 0-1.9 0-3.8 0.2-6.9-1.5 4.2-2.4 7.3zm15.7-12.1q0.7 0.7 1 1.4 0.2 0.3 0.2 0.6 0 0.4-0.1 1-0.9 4.1-1.5 7.3l-0.9 5.5q0 0.2-0.2 0.2-0.1 0-0.3 0-0.7-0.2-0.9-0.3-0.4-0.2-0.4-0.7l-0.1-0.3q0-0.5 0-1.5 0-2 0-4.7 0.1-4.9 0.3-8.5 0.1-1.4 0.7-1.4 0.2 0 0.6 0.2 0.7 0.4 1.6 1.2zm5.9 10.7q-0.1-0.4 0.7-0.6 0.5-0.2 1-0.4 0.7-0.2 1.4-0.3 0-0.7 0-1.4 0.1-4.8 0.3-8.5 0.1-1.3 0.7-1.4 0.2 0 0.6 0.2 0.7 0.4 1.6 1.2 0.7 0.8 1 1.4 0.1 0.3 0.2 0.6 0 0.4-0.2 1-0.7 3.4-1.2 6.2 0.9-0.3 1.4-0.4 1-0.1 1.4 0.7 0.2 0.9 0.3 1.4 0.1 0.4-0.1 0.5-0.2 0.1-0.5 0.2-1.6 0.3-2.6 0.7l-0.5 0.1-0.5 3.4q-0.1 0.2-0.2 0.3-0.1 0-0.3-0.1-0.7-0.1-0.9-0.2-0.4-0.3-0.5-0.8v-0.3q0-0.5 0-1.5v-0.1q-0.3 0.1-0.5 0.1-0.5 0.1-1.5-0.7-1-0.8-1.1-1.3zm8.9 2.9l-0.9-13.5q0.4-0.2 0.8-0.4 0.4-0.3 0.8-0.5 1-0.5 2-0.9 1-0.4 2-0.7 1.5-0.4 2.2-0.4h0.2q0.7-0.1 0.9 1.1 0.1 0.3 0.2 0.9 0 0.6 0 1.4 0.1 0.4 0.1 0.6 0 0.3 0 0.5-0.1 0.6-0.2 0.8-0.2 0.4-0.7 0.5l-1.9 0.4q-0.5 0.1-1 0.3-0.5 0.1-1.1 0.3-0.2 1.4-0.4 2.5-0.1 1.1-0.2 1.9-0.5 3.7-0.6 4.1 0 0.4-0.1 0.7 1.2-0.3 2.1-0.3 0.5-0.1 0.7 0.5 0.2 0.4 0.2 0.9 0 0.2-0.3 0.3-0.5 0.1-0.9 0.2-0.4 0.1-0.7 0.2-0.9 0.3-1.3 0.3-0.1 0-0.4-0.1-0.5-0.2-0.9-0.6-0.5-0.4-0.6-1zm6-7.7q0.4-0.5 0.8-0.8 0.4-0.3 0.7-0.4 0.4-0.2 0.7-0.3 0.3 0 0.5 0 0.4 0 0.7 0.1 0.3 0.1 0.6 0.3 0.3 0.2 0.6 0.4 0.2 0.2 0.4 0.4 1.3 1.6 1 4.7-0.4 2.3-1.4 3.5-1 1.3-2 1.2-0.8 0.1-1.5-0.2-0.9-0.4-1.5-1.2-0.6-0.9-0.7-2.1-0.5-3.2 1.1-5.6zm2.7 2.9q-0.4-0.2-1 0.9-0.7 1.1-0.4 3 0.1 1 0.6 0.9 0.2 0 0.5-0.2 1-1.2 0.9-3.2-0.1-1-0.6-1.4zm11.4-10.3q0.9 0.6 1.3 1.2 0.1 0.3 0.2 0.6 0.1 0.4 0 1-0.2 2.7-0.3 5.1 1.3-0.5 2.4-1.3 1-0.7 1.1-1.8 0-0.6-0.6-0.6-0.3 0-0.4 0-0.2 0.1-0.4 0.1-0.2 0.1-0.4 0.1-0.2 0-0.3 0-0.3 0.1-0.4-0.1-0.2-0.1-0.2-0.4 0-0.5 0-1 0-0.6 0-1.1 0-0.5 0.1-1 0.1-0.6 0.2-1 0.2-0.5 0.3-0.9 0.2-0.4 0.5-0.7 0.4-0.5 1.2-0.5 2.2-0.1 3.5 1.9 0.5 1 0.4 2.8 0 1.8-0.8 3.3-0.8 1.6-2.7 2.9-0.4 0.2-0.8 0.4-0.5 0.3-0.9 0.5-0.5 0.2-1 0.4-0.4 0.2-0.8 0.3l-0.1 0.8q2.4-0.4 3.7 0.2 0.8 0.4 0.9 1.2 0 1.2-1 2.1-0.6 0.6-1.7 1.2-0.2 0.1-0.4 0.1-0.2 0-0.4-0.2-0.2-0.1-0.4-0.3-0.1-0.2-0.2-0.4-0.1-0.2-0.1-0.3 0-0.1 0-0.1 0 0 0-0.1 0.1-0.1 1.1-0.5 0.5-0.3 0.5-0.6 0-0.3-0.3-0.5-0.1-0.1-0.4-0.1-0.3-0.1-0.7 0-0.1 0-0.3 0-0.1 0-0.3 0l-0.1 3.1q0 0.2-0.1 0.3h-0.3q-0.7-0.1-0.9-0.1-0.5-0.2-0.6-0.7-0.2-0.8-0.3-1.7 0-0.2-0.1-0.3-0.2 0-0.4 0.1-0.2 0.2-0.4 0.3-0.2 0.1-0.3 0.3-0.1 0.1-0.1 0.3 0 0.1 0.1 0.2 0 0.1 0.1 0.1 0 0.1 0.1 0.1 0.1 0 0.1 0 0.4 0.1 0.4 0.4 0 0.1-0.1 0.3-0.1 0.2-0.2 0.4-0.2 0.2-0.4 0.3-0.1 0.1-0.3 0.1-0.6 0-1-0.2-0.2-0.1-0.4-0.3-0.2-0.1-0.3-0.3-0.2-0.2-0.3-0.4-0.1-0.2-0.1-0.5 0-0.2 0-0.5 0.1-0.2 0.2-0.4 0.2-0.4 0.5-0.7 0.3-0.4 0.7-0.6 0.4-0.3 0.9-0.4 0.5-0.2 1-0.4-0.1-0.4-0.1-0.7-0.2 0-0.6 0-0.4 0-1 0-0.6-0.1-1.4-0.3-0.8-0.2-1.7-0.6-0.3-0.1-0.7-0.4-0.3-0.2-0.7-0.6-0.4-0.4-0.8-0.9-0.4-0.5-0.7-1-0.3-0.6-0.5-1.3-0.2-0.7-0.2-1.4 0-0.8 0-1.5 0.1-0.7 0.3-1.4 0.2-0.6 0.5-1.2 0.3-0.5 0.7-0.9 0.4-0.5 0.9-0.7 0.5-0.2 1.1-0.2 0.6-0.1 1.2 0.1 0.5 0.2 1 0.4 0.5 0.3 0.8 0.5 0.4 0.3 0.6 0.5 0-0.8 0.4-0.9 0.3-0.1 0.7 0 0.8 0.3 1.7 1zm-4.4 7.6q0.4 0.4 0.7 0.6 0.4 0.1 0.7 0.2 0.3 0.1 0.6 0.1 0.3 0 0.5 0-0.5-4-0.8-7.2-0.1 0.2-0.4 0.3-0.2 0.2-0.5 0.4-0.3 0.3-0.6 0.6-0.3 0.3-0.5 0.7-0.3 0.5-0.4 1-0.2 0.6-0.1 1.3 0 0.7 0.2 1.2 0.3 0.5 0.6 0.8zm15.9 5.7q0.4 0 0.7 0.5 0.2 0.4 0.2 0.9 0 0.2-0.3 0.3-0.6 0.1-0.9 0.2-0.4 0.2-0.7 0.2-1 0.3-1.4 0.3 0 0-0.3-0.1-0.6-0.1-1-0.5-0.4-0.5-0.5-1v-0.2q0-0.2 0.1-0.3 0-0.2 0.1-0.3l1.7-3.5q0-0.1 0-0.2 0.1-0.1 0.1-0.1 0-0.1-0.1-0.2 0-0.1 0-0.1-0.4-0.7-0.7-1.3-0.3-0.5-0.5-1-0.3-0.4-0.5-0.9-0.2-0.4-0.4-0.9-0.3-0.4-0.5-1-0.3-0.6-0.6-1.3-0.1-0.2-0.1-0.4-0.1-0.3-0.1-0.5 0-0.4 0.1-0.7 0.1-0.4 0.5-0.7 0.3-0.2 0.7-0.4 0.4-0.2 0.9-0.5 1-0.5 1.9-0.8 1-0.5 2.1-0.8 1.5-0.4 2.2-0.4h0.1q0.7 0 1 1.1 0.1 0.4 0.1 1 0.1 0.5 0.1 1.4 0 0.3 0 0.6 0 0.2 0 0.4 0 0.6-0.2 0.9-0.1 0.3-0.6 0.4l-1.9 0.4q-0.5 0.2-1.1 0.3-0.4 0.1-0.9 0.2l1.6 3.8q0.1 0.3 0.1 0.5 0 0.2 0 0.3 0 0.1 0 0.2 0 0.2-0.1 0.3-0.1 0.2-0.2 0.3-0.1 0.2-0.1 0.3l-2.3 3.6q0.9-0.3 1.7-0.3zm9.7-16.1q0.2 0 0.4 0.1 1.1 0.6 1.9 1.6 0.6 0.8 0.6 1.5 0.1 0.5-0.2 1.3-1 3-2 6.4-0.7 2.3-1 3.5-0.1 0.3-0.4 0.2-0.3 0.1-0.8-0.2-0.2 0-0.7 0-0.2 2-0.4 3.6-0.1 0.3-0.3 0.3-0.5 0-1-0.2-0.6-0.4-0.6-0.9l-0.1-2q-0.1 0-0.1 0-0.1 0-0.1 0-0.1 0-0.1 0-0.1 0-0.2 0-0.4-0.1-1.2-0.6-0.5-0.3-0.6-0.9-0.2-1-0.3-2-0.1-1.1-0.2-2.1-0.5-5-0.7-7.3-0.1-1.4 0.4-1.4 0.4 0 0.7 0 1.2 0.3 2.1 0.9 1.1 1 1.1 2.2 0 0.9-0.1 1.3 0 0.7-0.2 2.2-0.1 1.5-0.1 2.4l-0.2 1.9q0 0.2 0.1 0.2 0 0 0.1 0 0.3 0 0.6-0.2 0.3-0.1 0.5-0.2 0.3-0.2 0.5-0.3 0.2-0.2 0.3-0.4 1.2-7.1 1.5-9.4 0.3-1.5 0.8-1.5zm0 13q-0.1-0.3 0.7-0.6 0.5-0.2 1-0.3 0.7-0.3 1.4-0.4 0-0.6 0-1.3 0.1-4.9 0.3-8.5 0.1-1.4 0.7-1.4 0.2 0 0.6 0.1 0.7 0.4 1.5 1.2 0.8 0.8 1.1 1.4 0.1 0.3 0.2 0.7 0 0.3-0.2 1-0.7 3.3-1.2 6.1 0.9-0.2 1.4-0.4 1-0.1 1.3 0.7 0.3 0.9 0.4 1.4v0.1q0.1 0.3-0.1 0.4-0.2 0.2-0.5 0.2-1.6 0.4-2.6 0.7l-0.5 0.1-0.5 3.4q-0.1 0.3-0.2 0.3-0.1 0-0.3-0.1-0.7-0.1-0.9-0.2-0.4-0.3-0.5-0.8v-0.2q0-0.6 0-1.5v-0.2q-0.3 0.1-0.5 0.1-0.5 0.1-1.6-0.7-0.9-0.8-1-1.3z"/></svg>